<svg xmlns="http://www.w3.org/2000/svg" width="295" height="295.5" viewBox="0 0 295 295.5">
  <g id="_19" data-name="19" transform="translate(-390 -8529)">
    <g id="Grupo_81395" data-name="Grupo 81395" transform="translate(413 8552.07)">
      <g id="Grupo_81393" data-name="Grupo 81393">
        <rect id="Rectángulo_34208" data-name="Rectángulo 34208" width="230.725" height="230.725" rx="11.5" fill="#dee4f0" opacity="0.95" style="isolation: isolate"/>
        <path id="Trazado_114225" data-name="Trazado 114225" d="M630.294,1530.49H592.676l37.618-37.618Z" transform="translate(-418.692 -1317.947)" fill="#727997"/>
      </g>
      <g id="Grupo_81394" data-name="Grupo 81394" transform="translate(56.049 47.165)">
        <path id="Rectángulo_34209" data-name="Rectángulo 34209" d="M0,0H73.615a0,0,0,0,1,0,0V91.791a5.571,5.571,0,0,1-5.571,5.571H5.571A5.571,5.571,0,0,1,0,91.791V0A0,0,0,0,1,0,0Z" transform="matrix(0.852, 0.523, -0.523, 0.852, 50.915, 19.809)" fill="#a09f9f" stroke="#000" stroke-miterlimit="10" stroke-width="2"/>
        <path id="Trazado_114226" data-name="Trazado 114226" d="M583.445,1449.827l-29.094,47.422,91.841-8.924Z" transform="translate(-532.53 -1430.018)" fill="#efefef" stroke="#000" stroke-linecap="round" stroke-linejoin="round" stroke-width="2"/>
        <path id="Trazado_114227" data-name="Trazado 114227" d="M585.956,1484.275s8.685-36.858-2.147-41.911-21.818,35.567-21.818,35.567" transform="translate(-521.01 -1441.929)" fill="none" stroke="#000" stroke-linecap="round" stroke-linejoin="round" stroke-width="2"/>
        <line id="Línea_296" data-name="Línea 296" y2="34.589" transform="translate(113.662 58.306)" fill="#a09f9f" stroke="#000" stroke-linecap="round" stroke-miterlimit="10" stroke-width="2"/>
      </g>
    </g>
    <g id="Grupo_81463" data-name="Grupo 81463" transform="translate(0 6867)">
      <circle id="Elipse_4857" data-name="Elipse 4857" cx="42.5" cy="42.5" r="42.5" transform="translate(685 1747) rotate(180)" fill="#ff9500" opacity="0.8" style="mix-blend-mode: multiply;isolation: isolate"/>
      <circle id="Elipse_4858" data-name="Elipse 4858" cx="63.75" cy="63.75" r="63.75" transform="translate(517.5 1957.5) rotate(180)" fill="#0ca4ca" style="mix-blend-mode: multiply;isolation: isolate"/>
    </g>
  </g>
</svg>
