<svg xmlns="http://www.w3.org/2000/svg" xmlns:xlink="http://www.w3.org/1999/xlink" width="295" height="295.5" viewBox="0 0 295 295.5">
  <defs>
    <linearGradient id="linear-gradient" x1="0.5" y1="1" x2="0.5" gradientUnits="objectBoundingBox">
      <stop offset="0" stop-color="#6d6d6c"/>
      <stop offset="1" stop-color="#fff"/>
    </linearGradient>
  </defs>
  <g id="_20" data-name="20" transform="translate(-390 -9036)">
    <g id="Grupo_81398" data-name="Grupo 81398" transform="translate(413 9059.07)">
      <g id="Grupo_81396" data-name="Grupo 81396">
        <rect id="Rect치ngulo_34210" data-name="Rect치ngulo 34210" width="230.725" height="230.725" rx="11.5" fill="#dee4f0" opacity="0.95" style="isolation: isolate"/>
        <path id="Trazado_114228" data-name="Trazado 114228" d="M732.845,1530.49H695.227l37.618-37.618Z" transform="translate(-521.243 -1317.947)" fill="#727997"/>
      </g>
      <g id="Grupo_81397" data-name="Grupo 81397" transform="translate(55.949 56.417)">
        <path id="Rect치ngulo_34211" data-name="Rect치ngulo 34211" d="M0,0H58.212a0,0,0,0,1,0,0V71.419a5.571,5.571,0,0,1-5.571,5.571H5.571A5.571,5.571,0,0,1,0,71.419V0A0,0,0,0,1,0,0Z" transform="matrix(0.852, 0.523, -0.523, 0.852, 40.262, 15.665)" fill="#a09f9f" stroke="#000" stroke-miterlimit="10" stroke-width="2"/>
        <path id="Trazado_114229" data-name="Trazado 114229" d="M678.048,1451.864l-23.007,37.5,72.625-7.057Z" transform="translate(-637.786 -1436.199)" fill="#efefef" stroke="#000" stroke-linecap="round" stroke-linejoin="round" stroke-width="2"/>
        <path id="Trazado_114230" data-name="Trazado 114230" d="M680.035,1479.106s6.867-29.146-1.7-33.144-17.254,28.126-17.254,28.126" transform="translate(-628.676 -1445.618)" fill="none" stroke="#000" stroke-linecap="round" stroke-linejoin="round" stroke-width="2"/>
      </g>
      <path id="Trazado_114231" data-name="Trazado 114231" d="M698.867,1474.808l-23.255,36.416h46.114Z" transform="translate(-550.818 -1345.187)" fill="url(#linear-gradient)"/>
    </g>
    <g id="Grupo_81464" data-name="Grupo 81464" transform="translate(0 7374)">
      <circle id="Elipse_4857" data-name="Elipse 4857" cx="42.5" cy="42.5" r="42.5" transform="translate(685 1747) rotate(180)" fill="#ff9500" opacity="0.8" style="mix-blend-mode: multiply;isolation: isolate"/>
      <circle id="Elipse_4858" data-name="Elipse 4858" cx="63.75" cy="63.75" r="63.75" transform="translate(517.5 1957.5) rotate(180)" fill="#0ca4ca" style="mix-blend-mode: multiply;isolation: isolate"/>
    </g>
  </g>
</svg>
