<svg xmlns="http://www.w3.org/2000/svg" width="50" height="50" viewBox="0 0 50 50">
  <g id="n10" transform="translate(0.259 0.343)" opacity="0.95">
    <circle id="Elipse_4720" data-name="Elipse 4720" cx="25" cy="25" r="25" transform="translate(-0.259 -0.343)" fill="#255065"/>
    <path id="Trazado_114317" data-name="Trazado 114317" d="M-5.64,0h-5.446V-17.338l-5.35,1.563V-19.9l10.3-3.561h.5ZM17.725-9.587q0,4.753-2.135,7.332A7.378,7.378,0,0,1,9.571.322,7.418,7.418,0,0,1,3.513-2.272Q1.37-4.866,1.37-9.587v-4.286q0-4.753,2.135-7.332a7.4,7.4,0,0,1,6.034-2.578,7.4,7.4,0,0,1,6.042,2.594q2.143,2.594,2.143,7.332Zm-5.43-4.979a8.368,8.368,0,0,0-.661-3.779,2.208,2.208,0,0,0-2.095-1.249A2.156,2.156,0,0,0,7.5-18.434a7.882,7.882,0,0,0-.685,3.513v5.994a8.431,8.431,0,0,0,.661,3.843A2.217,2.217,0,0,0,9.571-3.867a2.187,2.187,0,0,0,2.046-1.184,8.048,8.048,0,0,0,.677-3.714Z" transform="translate(24.741 35.656)" fill="#fff"/>
  </g>
</svg>
