<svg xmlns="http://www.w3.org/2000/svg" width="50" height="50" viewBox="0 0 50 50">
  <g id="n3" transform="translate(0.259 0.344)" opacity="0.95">
    <circle id="Elipse_4720" data-name="Elipse 4720" cx="25" cy="25" r="25" transform="translate(-0.259 -0.343)" fill="#255065"/>
    <path id="Trazado_114310" data-name="Trazado 114310" d="M-3.158-14H-.6q3.045,0,3.045-2.981a2.578,2.578,0,0,0-.725-1.893A2.75,2.75,0,0,0-.322-19.61a2.944,2.944,0,0,0-1.877.628A1.917,1.917,0,0,0-3-17.418h-5.43a5.559,5.559,0,0,1,1.031-3.3,6.81,6.81,0,0,1,2.86-2.264A9.779,9.779,0,0,1-.516-23.8,9.608,9.608,0,0,1,5.64-22.011,5.946,5.946,0,0,1,7.879-17.1a4.956,4.956,0,0,1-.927,2.86,6.6,6.6,0,0,1-2.7,2.183A6.308,6.308,0,0,1,7.187-10,5.41,5.41,0,0,1,8.25-6.59,6.054,6.054,0,0,1,5.833-1.563,10.033,10.033,0,0,1-.516.322,10.4,10.4,0,0,1-4.794-.556,6.7,6.7,0,0,1-7.783-2.989,6.326,6.326,0,0,1-8.8-6.526h5.462a2.445,2.445,0,0,0,.87,1.869,3.072,3.072,0,0,0,2.143.79,3.218,3.218,0,0,0,2.288-.8A2.666,2.666,0,0,0,2.82-6.7a3.117,3.117,0,0,0-.886-2.514A3.7,3.7,0,0,0-.516-9.958H-3.158Z" transform="translate(25.741 35.656)" fill="#fff"/>
  </g>
</svg>
