<svg xmlns="http://www.w3.org/2000/svg" width="50" height="50" viewBox="0 0 50 50">
  <g id="n9" transform="translate(0.259 0.343)" opacity="0.95">
    <circle id="Elipse_4720" data-name="Elipse 4720" cx="25" cy="25" r="25" transform="translate(-0.259 -0.343)" fill="#255065"/>
    <path id="Trazado_114316" data-name="Trazado 114316" d="M2.578-9.072A5.735,5.735,0,0,1-1.354-7.493a6.348,6.348,0,0,1-5.06-2.159A8.507,8.507,0,0,1-8.282-15.42,8.658,8.658,0,0,1-7.235-19.61a7.859,7.859,0,0,1,2.941-3.062A8.017,8.017,0,0,1-.113-23.8a7.783,7.783,0,0,1,4.2,1.168,7.865,7.865,0,0,1,2.925,3.3,11.347,11.347,0,0,1,1.08,4.923v2.079A14.1,14.1,0,0,1,6.566-5.591,10.512,10.512,0,0,1,2.224-1.208,13.569,13.569,0,0,1-4.351.322h-.338V-4.028l1.031-.016Q1.95-4.318,2.578-9.072ZM.113-11.408a2.644,2.644,0,0,0,2.546-1.531v-2.256A5.865,5.865,0,0,0,1.9-18.53,2.375,2.375,0,0,0-.145-19.61a2.245,2.245,0,0,0-1.917,1.225,5.44,5.44,0,0,0-.773,2.965,4.878,4.878,0,0,0,.79,2.925A2.526,2.526,0,0,0,.113-11.408Z" transform="translate(25.741 35.656)" fill="#fff"/>
  </g>
</svg>
