<svg xmlns="http://www.w3.org/2000/svg" width="136" height="136" viewBox="0 0 136 136">
  <g id="_10" data-name="10" transform="translate(-1238.548 -1233.945)">
    <circle id="Elipse_4921" data-name="Elipse 4921" cx="68" cy="68" r="68" transform="translate(1238.548 1233.945)" fill="#ff9500" opacity="0.95" style="isolation: isolate"/>
    <circle id="Elipse_4922" data-name="Elipse 4922" cx="55" cy="55" r="55" transform="translate(1251.548 1246.945)" fill="#efefef" opacity="0.95" style="isolation: isolate"/>
    <g id="Grupo_81568" data-name="Grupo 81568" opacity="0.95" style="isolation: isolate">
      <path id="Trazado_114261" data-name="Trazado 114261" d="M1280.579,1260.6a1.378,1.378,0,0,0,0,2.755h.743a1.378,1.378,0,0,0,0-2.755Zm0,0" fill="#255065"/>
      <path id="Trazado_114262" data-name="Trazado 114262" d="M1286.515,1260.6a1.378,1.378,0,1,0,0,2.755h.743a1.378,1.378,0,1,0,0-2.755Zm0,0" fill="#255065"/>
      <path id="Trazado_114263" data-name="Trazado 114263" d="M1292.451,1260.6a1.378,1.378,0,0,0,0,2.755h.743a1.378,1.378,0,1,0,0-2.755Zm0,0" fill="#255065"/>
      <path id="Trazado_114264" data-name="Trazado 114264" d="M1291.074,1287.2V1302a1.5,1.5,0,0,0,.821,1.34h0l13.969,7.127a1.5,1.5,0,0,0,1.367,0l13.969-7.126a1.5,1.5,0,0,0,.821-1.34v-14.8a1.5,1.5,0,0,0-.821-1.341l-13.969-7.127a1.517,1.517,0,0,0-1.367,0l-13.97,7.127a1.5,1.5,0,0,0-.821,1.341Zm2.757,2.171,11.339,5.786v11.864l-11.339-5.786Zm14.095,17.65v-11.864l11.339-5.786v11.864Zm-1.378-25.544,11.064,5.646-11.064,5.644-11.064-5.644Zm0,0" fill="#255065"/>
      <path id="Trazado_114265" data-name="Trazado 114265" d="M1283.367,1280.095h9.717a2.2,2.2,0,0,0,2.193-2.193v-3.871a2.2,2.2,0,0,0-2.193-2.193h-9.717a2.2,2.2,0,0,0-2.193,2.193v3.871a2.2,2.2,0,0,0,2.193,2.193Zm.562-5.5h8.593v2.747h-8.593Zm0,0" fill="#255065"/>
      <path id="Trazado_114266" data-name="Trazado 114266" d="M1320.012,1280.095h9.717a2.2,2.2,0,0,0,2.193-2.193v-3.871a2.2,2.2,0,0,0-2.193-2.193h-9.717a2.2,2.2,0,0,0-2.194,2.193v3.871a2.2,2.2,0,0,0,2.194,2.193Zm.562-5.5h8.593v2.747h-8.593Zm0,0" fill="#255065"/>
      <path id="Trazado_114267" data-name="Trazado 114267" d="M1341.921,1267.148h-2.734v-6.323a5.861,5.861,0,0,0-5.855-5.854h-5.356a1.378,1.378,0,1,0,0,2.755h5.356a3.1,3.1,0,0,1,3.1,3.1v4.412h-59.766v-4.412a3.1,3.1,0,0,1,3.1-3.1h42.34a1.378,1.378,0,0,0,0-2.755h-42.34a5.861,5.861,0,0,0-5.855,5.854v6.323h-2.735a7.862,7.862,0,0,0-7.853,7.853v47.405a7.862,7.862,0,0,0,7.853,7.853h19.119v12.033l-3.1,3.36a1.947,1.947,0,0,0,1.433,3.268h35.839a1.947,1.947,0,0,0,1.432-3.268l-3.1-3.36v-12.033h6.667a1.378,1.378,0,1,0,0-2.755h-58.3a5.1,5.1,0,0,1-5.1-5.1v-2.644h80.941v2.644a5.1,5.1,0,0,1-5.1,5.1h-6.579a1.378,1.378,0,1,0,0,2.755h6.579a7.862,7.862,0,0,0,7.854-7.853V1275a7.862,7.862,0,0,0-7.854-7.853Zm-51.451,79.017,2.214-2.4a1.376,1.376,0,0,0,.365-.934v-1.961h27v1.961a1.376,1.376,0,0,0,.365.934l2.214,2.4Zm29.577-8.052h-27v-7.854h27ZM1266.078,1275a5.1,5.1,0,0,1,5.1-5.1h2.735v31.637a1.378,1.378,0,0,0,2.756,0v-33.548h59.766v49.013h-59.766v-9.593a1.378,1.378,0,0,0-2.756,0v9.593h-7.831Zm73.109,42.005v-47.1h2.734a5.1,5.1,0,0,1,5.1,5.1v42.005Zm0,0" fill="#255065"/>
    </g>
  </g>
</svg>
