<svg xmlns="http://www.w3.org/2000/svg" width="136" height="136" viewBox="0 0 136 136">
  <g id="_11" data-name="11" transform="translate(-1383.997 -1233.945)">
    <circle id="Elipse_4919" data-name="Elipse 4919" cx="68" cy="68" r="68" transform="translate(1383.997 1233.945)" fill="#ff9500" opacity="0.95" style="isolation: isolate"/>
    <circle id="Elipse_4920" data-name="Elipse 4920" cx="55" cy="55" r="55" transform="translate(1396.997 1246.945)" fill="#efefef" opacity="0.95" style="isolation: isolate"/>
    <g id="Grupo_81566" data-name="Grupo 81566" opacity="0.95" style="isolation: isolate">
      <path id="Trazado_114252" data-name="Trazado 114252" d="M1414.058,1271.184a1.4,1.4,0,0,0,0,2.806h.659a1.4,1.4,0,1,0,0-2.806Zm0,0" fill="#255065"/>
      <path id="Trazado_114253" data-name="Trazado 114253" d="M1421.976,1273.99h.66a1.4,1.4,0,0,0,0-2.806h-.66a1.4,1.4,0,0,0,0,2.806Zm0,0" fill="#255065"/>
      <path id="Trazado_114254" data-name="Trazado 114254" d="M1430.553,1273.99a1.4,1.4,0,1,0,0-2.806h-.66a1.4,1.4,0,0,0,0,2.806Zm0,0" fill="#255065"/>
      <path id="Trazado_114255" data-name="Trazado 114255" d="M1432.349,1325.254a1.651,1.651,0,0,0,1.466-.888l14.167-26.991a1.655,1.655,0,0,0-.883-2.32l-14.165-5.343a1.656,1.656,0,0,0-1.169,0l-14.167,5.343a1.657,1.657,0,0,0-.882,2.319l14.166,26.992a1.653,1.653,0,0,0,1.467.888Zm-1.4-6.805-10.163-19.365,10.163,3.832Zm2.807,0v-15.533l10.163-3.832Zm-1.4-25.957,10.546,3.977-10.546,3.977-10.547-3.977Zm0,0" fill="#255065"/>
      <path id="Trazado_114256" data-name="Trazado 114256" d="M1454.279,1297.421h21.53a6,6,0,0,0,8.731,0h6.578a2.417,2.417,0,0,0,2.415-2.415v-3.435a2.417,2.417,0,0,0-2.415-2.415h-6.578a6,6,0,0,0-8.731,0h-21.53a2.418,2.418,0,0,0-2.415,2.415v3.435a2.418,2.418,0,0,0,2.415,2.415Zm36.448-5.459v2.653h-4.686a5.939,5.939,0,0,0,0-2.653Zm-10.552-1.883a3.21,3.21,0,1,1-3.209,3.209,3.213,3.213,0,0,1,3.209-3.209Zm-25.505,1.883h19.639a5.944,5.944,0,0,0,0,2.653H1454.67Zm0,0" fill="#255065"/>
      <path id="Trazado_114257" data-name="Trazado 114257" d="M1451.864,1310.068a2.419,2.419,0,0,0,2.415,2.415h4.541a6,6,0,0,0,8.73,0h23.568a2.418,2.418,0,0,0,2.415-2.415v-3.436a2.417,2.417,0,0,0-2.415-2.415H1467.55a6,6,0,0,0-8.73,0h-4.541a2.418,2.418,0,0,0-2.415,2.415Zm38.863-3.045v2.654h-21.676a5.987,5.987,0,0,0,0-2.654Zm-27.543-1.883a3.209,3.209,0,1,1-3.209,3.21,3.213,3.213,0,0,1,3.209-3.21Zm-8.514,1.883h2.648a6.048,6.048,0,0,0-.15,1.327,5.981,5.981,0,0,0,.15,1.327h-2.648Zm0,0" fill="#255065"/>
      <path id="Trazado_114258" data-name="Trazado 114258" d="M1451.864,1325.129a2.418,2.418,0,0,0,2.415,2.415h19.931a6,6,0,0,0,8.73,0h8.178a2.417,2.417,0,0,0,2.415-2.415v-3.435a2.417,2.417,0,0,0-2.415-2.415h-8.178a6,6,0,0,0-8.73,0h-19.931a2.418,2.418,0,0,0-2.415,2.415Zm38.863-3.044v2.653h-6.286a6.046,6.046,0,0,0,.15-1.326,5.982,5.982,0,0,0-.15-1.327Zm-12.152-1.883a3.209,3.209,0,1,1-3.209,3.21,3.212,3.212,0,0,1,3.209-3.21Zm-23.9,1.883h18.038a5.978,5.978,0,0,0,0,2.653H1454.67Zm0,0" fill="#255065"/>
      <path id="Trazado_114259" data-name="Trazado 114259" d="M1493.305,1264.327h-69.4a1.4,1.4,0,1,0,0,2.807h69.4a3.721,3.721,0,0,1,3.717,3.717v6.888h-90.049v-6.888a3.72,3.72,0,0,1,3.716-3.717h7.24a1.4,1.4,0,0,0,0-2.807h-7.24a6.53,6.53,0,0,0-6.523,6.524v62.189a6.532,6.532,0,0,0,6.523,6.524h7.458a1.4,1.4,0,0,0,0-2.807h-7.458a3.72,3.72,0,0,1-3.716-3.717v-52.494h90.049v8.1a1.4,1.4,0,0,0,2.806,0v-17.794a6.53,6.53,0,0,0-6.523-6.524Zm0,0" fill="#255065"/>
      <path id="Trazado_114260" data-name="Trazado 114260" d="M1498.425,1293.221a1.4,1.4,0,0,0-1.4,1.4v38.415a3.721,3.721,0,0,1-3.717,3.717h-69.178a1.4,1.4,0,1,0,0,2.807h69.178a6.532,6.532,0,0,0,6.523-6.524v-38.415a1.4,1.4,0,0,0-1.4-1.4Zm0,0" fill="#255065"/>
    </g>
  </g>
</svg>
