<svg xmlns="http://www.w3.org/2000/svg" width="136" height="136" viewBox="0 0 136 136">
  <g id="_3" data-name="3" transform="translate(-635.832 -1234.367)">
    <circle id="Elipse_4911" data-name="Elipse 4911" cx="68" cy="68" r="68" transform="translate(635.832 1234.367)" fill="#ff9500" opacity="0.95" style="isolation: isolate"/>
    <circle id="Elipse_4912" data-name="Elipse 4912" cx="55" cy="55" r="55" transform="translate(648.832 1247.367)" fill="#efefef" opacity="0.95" style="isolation: isolate"/>
    <g id="Grupo_81540" data-name="Grupo 81540" opacity="0.95" style="isolation: isolate">
      <path id="Trazado_114235" data-name="Trazado 114235" d="M716.618,1310.919a1.521,1.521,0,0,0,2.1-.445l21.044-32.285a1.52,1.52,0,0,0-2.548-1.66l-21.044,32.285a1.523,1.523,0,0,0,.444,2.1Zm0,0" fill="#255065"/>
      <path id="Trazado_114236" data-name="Trazado 114236" d="M688.787,1310.474a1.521,1.521,0,1,0,2.548-1.66l-21.044-32.285a1.521,1.521,0,0,0-2.548,1.66Zm0,0" fill="#255065"/>
      <g id="Grupo_81539" data-name="Grupo 81539">
        <path id="Trazado_114237" data-name="Trazado 114237" d="M684.287,1288.54l18.774,9.579a1.687,1.687,0,0,0,1.54,0l18.778-9.58a1.686,1.686,0,0,0,.922-1.506V1280.2a1.521,1.521,0,0,0-3.042,0v6.01l-15.984,8.155V1277.67l15.984-8.155v4.195a1.521,1.521,0,0,0,3.042,0v-6.574a1.683,1.683,0,0,0-.924-1.506l-18.774-9.579a1.7,1.7,0,0,0-1.54,0l-18.774,9.58a1.679,1.679,0,0,0-.924,1.506v19.9a1.682,1.682,0,0,0,.922,1.507Zm2.118-19.025,15.829,8.076v16.692l-15.829-8.076Zm17.427-10.443,15.6,7.96-15.6,7.96-15.6-7.96Zm0,0" fill="#255065"/>
        <path id="Trazado_114238" data-name="Trazado 114238" d="M755.43,1316.34a6.644,6.644,0,0,0-8.327-4.05l-8.574,2.873a1.521,1.521,0,0,0,.966,2.884l8.574-2.873a3.57,3.57,0,0,1,2.715,6.585l-41.263,20.374a35.733,35.733,0,0,1-18.972,3.555l-27.784-2.457c-.045,0-.089-.006-.133-.006H653.37a1.521,1.521,0,0,0,0,3.041h9.194l27.716,2.451q1.71.151,3.419.151a38.765,38.765,0,0,0,17.168-4.008l41.263-20.374a6.611,6.611,0,0,0,3.3-8.146Zm0,0" fill="#255065"/>
      </g>
      <path id="Trazado_114239" data-name="Trazado 114239" d="M653.37,1323.139h5.108a1.516,1.516,0,0,0,.8-.226,42.691,42.691,0,0,1,14.08-5.531,1.52,1.52,0,1,0-.6-2.982,45.729,45.729,0,0,0-14.709,5.7H653.37a1.521,1.521,0,0,0,0,3.042Zm0,0" fill="#255065"/>
      <path id="Trazado_114240" data-name="Trazado 114240" d="M715.985,1327.543H693.044a1.52,1.52,0,1,0,0,3.04h22.941a7.262,7.262,0,0,0,7.251-7.089l10.07-3.373a1.521,1.521,0,0,0-.967-2.884l-9.682,3.244a7.264,7.264,0,0,0-6.672-4.407H697.731l-5.073-1.244a45.82,45.82,0,0,0-13.2-1.26,1.52,1.52,0,0,0,.151,3.037,42.782,42.782,0,0,1,12.319,1.176l5.252,1.288a1.53,1.53,0,0,0,.362.044h18.438a4.214,4.214,0,0,1,0,8.428Zm0,0" fill="#255065"/>
    </g>
  </g>
</svg>
