<svg xmlns="http://www.w3.org/2000/svg" width="136" height="136" viewBox="0 0 136 136">
  <g id="_8" data-name="8" transform="translate(-936.903 -1233.945)">
    <circle id="Elipse_4923" data-name="Elipse 4923" cx="68" cy="68" r="68" transform="translate(936.903 1233.945)" fill="#ff9500" opacity="0.95" style="isolation: isolate"/>
    <circle id="Elipse_4924" data-name="Elipse 4924" cx="55" cy="55" r="55" transform="translate(949.903 1246.945)" fill="#efefef" opacity="0.95" style="isolation: isolate"/>
    <g id="Grupo_81571" data-name="Grupo 81571" opacity="0.95" style="isolation: isolate">
      <g id="Grupo_81570" data-name="Grupo 81570">
        <path id="Trazado_114268" data-name="Trazado 114268" d="M1056.064,1312.087a3.712,3.712,0,0,0-2.351-3.468l-10.132-4.023,10.131-4.022a3.742,3.742,0,0,0,0-6.937l-7.068-2.806c14.946-11.9,6.525-36.471-12.824-36.491a20.568,20.568,0,0,0-20.307,23.338l-6.835-2.713a4.79,4.79,0,0,0-3.551,0l-18.966,7.529a1.5,1.5,0,1,0,1.106,2.785l18.965-7.527a1.807,1.807,0,0,1,1.341,0l8.763,3.477c3.644,11.825,18.269,17.874,29.279,11.626l8.991,3.568a.737.737,0,0,1,0,1.365l-47.034,18.671a1.807,1.807,0,0,1-1.341,0L957.2,1297.787a.737.737,0,0,1,0-1.364l21.559-8.56a1.5,1.5,0,1,0-1.106-2.786l-21.56,8.56a3.743,3.743,0,0,0,0,6.937l10.133,4.022-10.133,4.023a3.743,3.743,0,0,0,0,6.938l10.132,4.022-10.132,4.02a3.737,3.737,0,0,0,0,6.94l47.035,18.672a4.79,4.79,0,0,0,3.551,0l17.753-7.049a1.5,1.5,0,0,0-1.106-2.786l-17.752,7.048a1.807,1.807,0,0,1-1.341,0L957.2,1327.752a.734.734,0,0,1,0-1.366l13.09-5.194,32.839,13.036a4.8,4.8,0,0,0,3.551,0l32.839-13.036,13.089,5.194a.734.734,0,0,1,0,1.366l-22.77,9.04a1.5,1.5,0,1,0,1.106,2.785l22.77-9.038a3.736,3.736,0,0,0,0-6.939l-10.132-4.021,10.132-4.022a3.713,3.713,0,0,0,2.351-3.47Zm-39.749-37.242a17.527,17.527,0,0,1,17.508-17.508c23.192.881,23.186,34.137,0,35.014a17.526,17.526,0,0,1-17.506-17.506Zm36.293,37.925-47.034,18.672a1.817,1.817,0,0,1-1.341,0L957.2,1312.77a.733.733,0,0,1,0-1.364l13.089-5.2,32.839,13.036a4.79,4.79,0,0,0,3.551,0l32.839-13.036,13.089,5.2a.733.733,0,0,1,0,1.364Zm0,0" fill="#255065"/>
      </g>
      <path id="Trazado_114269" data-name="Trazado 114269" d="M1041.231,1270.347h-2.912v-2.912a4.5,4.5,0,1,0-8.994-.086v3h-2.912a4.536,4.536,0,0,0-4.577,4.282,4.464,4.464,0,0,0,1.238,3.318,4.516,4.516,0,0,0,3.254,1.394h3v2.912a4.533,4.533,0,0,0,4.281,4.577,4.466,4.466,0,0,0,3.318-1.238,4.515,4.515,0,0,0,1.394-3.253v-3h3a4.515,4.515,0,0,0,3.253-1.394,4.46,4.46,0,0,0,1.238-3.318,4.534,4.534,0,0,0-4.577-4.282Zm1.17,5.531a1.484,1.484,0,0,1-1.084.464h-3.7a2.3,2.3,0,0,0-2.3,2.3v3.7a1.5,1.5,0,0,1-1.573,1.5,1.56,1.56,0,0,1-1.424-1.582v-3.613a2.3,2.3,0,0,0-2.3-2.3h-3.7a1.5,1.5,0,0,1-1.5-1.572,1.561,1.561,0,0,1,1.582-1.425h3.612a2.3,2.3,0,0,0,2.3-2.3v-3.7a1.5,1.5,0,0,1,1.573-1.5,1.56,1.56,0,0,1,1.424,1.582v3.611a2.3,2.3,0,0,0,2.3,2.3h3.613a1.559,1.559,0,0,1,1.58,1.425,1.485,1.485,0,0,1-.412,1.108Zm0,0" fill="#255065"/>
    </g>
  </g>
</svg>
