<svg xmlns="http://www.w3.org/2000/svg" width="620" height="275" viewBox="0 0 620 275">
  <g id="_1" data-name="1" transform="translate(-180 -410.1)">
    <rect id="Rectángulo_33866" data-name="Rectángulo 33866" width="620" height="275" transform="translate(180 410.1)" fill="#f6f6f6"/>
    <path id="Trazado_114139" data-name="Trazado 114139" d="M1054.423,1380.767a82.031,82.031,0,0,1,26.556,5.472,84.391,84.391,0,0,1,23.42,13.692,80.476,80.476,0,0,1,10.76,10.775c.315.381.9-.122.581-.505a82.688,82.688,0,0,0-20.662-17.862,85,85,0,0,0-25.3-10.326,81.541,81.541,0,0,0-15.293-2.013c-.494-.017-.559.75-.064.767Z" transform="translate(-501.723 -791.246)" fill="#efefef" opacity="0.95" style="isolation: isolate"/>
    <path id="Trazado_114140" data-name="Trazado 114140" d="M1074.531,1381.858c5.458-5.258,12.946-11.174,20.623-14.5,4.344-1.884,9.143-3.439,14.121-3.387,2.355.024,4.88.5,6.321,1.884,2.138,2.057.944,5.214-1.358,7.225-2.491,2.179-6,3.535-9.486,4.687-9.284,3.063-20.189,3.238-30.22,4.094" transform="translate(-503.823 -789.6)" fill="#efefef" opacity="0.95" style="isolation: isolate"/>
    <path id="Trazado_114141" data-name="Trazado 114141" d="M1100.192,1393.571c4.985-3.19,11.626-6.571,18.015-7.943a27.322,27.322,0,0,1,11.332-.429c1.8.38,3.661,1.131,4.551,2.412,1.323,1.9-.076,4.137-2.147,5.324a21.556,21.556,0,0,1-7.983,2.134c-7.579.922-15.956-.616-23.768-1.5" transform="translate(-506.458 -791.736)" fill="#efefef" opacity="0.95" style="isolation: isolate"/>
    <path id="Trazado_114142" data-name="Trazado 114142" d="M1103.7,1396.565c7.277,2.119,16.133,5.675,22.839,10.678,3.8,2.832,7.531,6.222,9.962,10.566,1.15,2.056,1.995,4.482,1.508,6.42-.72,2.879-4.054,3.412-6.943,2.416-3.128-1.078-6.049-3.445-8.784-5.9-7.275-6.531-12.85-15.9-18.582-24.18" transform="translate(-506.819 -792.947)" fill="#efefef" opacity="0.95" style="isolation: isolate"/>
    <path id="Trazado_114143" data-name="Trazado 114143" d="M1083.193,1385.949c4.365,4.583,9.362,10.935,12.4,17.58a35.512,35.512,0,0,1,3.5,12.358c.134,2.09-.064,4.353-1.027,5.7-1.43,2-3.916,1.094-5.6-.849-1.823-2.1-3.085-5.145-4.189-8.184-2.939-8.085-3.779-17.749-5.082-26.6" transform="translate(-504.713 -791.857)" fill="#efefef" opacity="0.95" style="isolation: isolate"/>
    <path id="Trazado_114144" data-name="Trazado 114144" d="M1068.264,1381.821a43.758,43.758,0,0,1,7.954,11.276,22.808,22.808,0,0,1,2.245,7.928,6.035,6.035,0,0,1-.659,3.656c-.918,1.282-2.512.7-3.593-.545a17.06,17.06,0,0,1-2.687-5.25c-1.885-5.185-2.423-11.385-3.26-17.065" transform="translate(-503.18 -791.434)" fill="#efefef" opacity="0.95" style="isolation: isolate"/>
    <path id="Trazado_114145" data-name="Trazado 114145" d="M944.137,1425.837a51.837,51.837,0,0,1-10.486,13.545,53.329,53.329,0,0,1-14.279,9.48,50.838,50.838,0,0,1-9.1,3.109.243.243,0,0,0,.125.47,52.269,52.269,0,0,0,15.877-6.756,53.7,53.7,0,0,0,12.891-11.483,51.47,51.47,0,0,0,5.394-8.116c.147-.275-.27-.526-.418-.25Z" transform="translate(-486.936 -795.94)" fill="#255065" opacity="0.95" style="isolation: isolate"/>
    <path id="Trazado_114146" data-name="Trazado 114146" d="M939.991,1436.388a47.217,47.217,0,0,1,2.5,15.73,22.129,22.129,0,0,1-2,8.953,6.025,6.025,0,0,1-2.826,3.062c-1.761.642-3.221-.914-3.722-2.779a17.437,17.437,0,0,1-.022-6.685c.843-6.118,3.776-12.353,6.077-18.281" transform="translate(-489.349 -797.037)" fill="#255065" opacity="0.95" style="isolation: isolate"/>
    <path id="Trazado_114147" data-name="Trazado 114147" d="M926.565,1447.979a36.883,36.883,0,0,1-.5,12.427,17.265,17.265,0,0,1-2.907,6.548,4.7,4.7,0,0,1-2.634,1.911c-1.446.221-2.326-1.193-2.424-2.7a13.6,13.6,0,0,1,1.009-5.122c1.584-4.556,4.785-8.881,7.457-13.067" transform="translate(-487.756 -798.228)" fill="#255065" opacity="0.95" style="isolation: isolate"/>
    <path id="Trazado_114148" data-name="Trazado 114148" d="M922.451,1449.419a47.188,47.188,0,0,1-12.406,9.988,22.1,22.1,0,0,1-8.763,2.714,6.024,6.024,0,0,1-4.062-.929c-1.432-1.209-.808-3.248.56-4.611a17.44,17.44,0,0,1,5.788-3.342c5.727-2.312,12.594-2.869,18.883-3.82" transform="translate(-485.529 -798.375)" fill="#255065" opacity="0.95" style="isolation: isolate"/>
    <path id="Trazado_114149" data-name="Trazado 114149" d="M934.344,1440.195a43.073,43.073,0,0,1-13.42,2.147,22.446,22.446,0,0,1-7.983-1.45,5.945,5.945,0,0,1-2.948-2.167c-.736-1.367.468-2.526,2.039-2.94a16.8,16.8,0,0,1,5.807-.1c5.4.581,11.119,2.791,16.5,4.512" transform="translate(-486.902 -796.943)" fill="#255065" opacity="0.95" style="isolation: isolate"/>
    <path id="Trazado_114150" data-name="Trazado 114150" d="M941.845,1433.066a27.653,27.653,0,0,1-8.609,1.378,14.418,14.418,0,0,1-5.122-.93,3.822,3.822,0,0,1-1.891-1.39c-.472-.878.3-1.62,1.308-1.887a10.786,10.786,0,0,1,3.726-.065c3.465.371,7.133,1.789,10.587,2.894" transform="translate(-488.577 -796.385)" fill="#255065" opacity="0.95" style="isolation: isolate"/>
    <path id="Trazado_114151" data-name="Trazado 114151" d="M988.376,1236.747a51.813,51.813,0,0,1,9.749-14.084,53.27,53.27,0,0,1,13.753-10.228,50.735,50.735,0,0,1,8.925-3.59.243.243,0,0,0-.15-.463,52.244,52.244,0,0,0-15.494,7.593,53.7,53.7,0,0,0-12.261,12.153,51.519,51.519,0,0,0-4.952,8.392c-.133.284.3.511.43.227Z" transform="translate(-494.928 -773.619)" fill="#255065" opacity="0.95" style="isolation: isolate"/>
    <path id="Trazado_114152" data-name="Trazado 114152" d="M994.785,1225.876a47.173,47.173,0,0,1-3.33-15.575,22.107,22.107,0,0,1,1.523-9.047,6.024,6.024,0,0,1,2.659-3.208c1.725-.735,3.265.74,3.865,2.576a17.43,17.43,0,0,1,.378,6.673c-.515,6.155-3.111,12.538-5.094,18.58" transform="translate(-495.291 -772.539)" fill="#255065" opacity="0.95" style="isolation: isolate"/>
    <path id="Trazado_114153" data-name="Trazado 114153" d="M1007.646,1214.377a36.852,36.852,0,0,1-.162-12.437,17.282,17.282,0,0,1,2.554-6.694,4.7,4.7,0,0,1,2.528-2.048c1.434-.3,2.387,1.068,2.565,2.565a13.622,13.622,0,0,1-.734,5.168c-1.339,4.635-4.305,9.124-6.75,13.447" transform="translate(-496.89 -772.057)" fill="#255065" opacity="0.95" style="isolation: isolate"/>
    <path id="Trazado_114154" data-name="Trazado 114154" d="M1009.74,1213.667a47.227,47.227,0,0,1,11.856-10.636,22.109,22.109,0,0,1,8.607-3.177,6.027,6.027,0,0,1,4.105.711c1.495,1.131.981,3.2-.313,4.635a17.462,17.462,0,0,1-5.6,3.647c-5.6,2.614-12.424,3.536-18.653,4.821" transform="translate(-497.169 -772.737)" fill="#255065" opacity="0.95" style="isolation: isolate"/>
    <path id="Trazado_114155" data-name="Trazado 114155" d="M998.5,1224.224a43.106,43.106,0,0,1,13.286-2.86,22.445,22.445,0,0,1,8.05,1.022,5.944,5.944,0,0,1,3.058,2.007c.808,1.325-.333,2.547-1.878,3.045a16.785,16.785,0,0,1-5.795.412c-5.426-.292-11.251-2.194-16.721-3.626" transform="translate(-496.014 -774.952)" fill="#255065" opacity="0.95" style="isolation: isolate"/>
    <path id="Trazado_114156" data-name="Trazado 114156" d="M992.4,1232a27.63,27.63,0,0,1,8.523-1.835,14.388,14.388,0,0,1,5.163.656,3.808,3.808,0,0,1,1.962,1.288c.518.85-.214,1.633-1.205,1.953a10.8,10.8,0,0,1-3.717.264c-3.481-.187-7.218-1.407-10.727-2.326" transform="translate(-495.388 -775.856)" fill="#255065" opacity="0.95" style="isolation: isolate"/>
    <path id="Trazado_114157" data-name="Trazado 114157" d="M836.65,1266.2a74.1,74.1,0,0,1-24.418,1.8,76.219,76.219,0,0,1-23.723-6.112,72.731,72.731,0,0,1-12.006-6.7c-.368-.254-.749.328-.38.582a74.676,74.676,0,0,0,22.356,10.414A76.754,76.754,0,0,0,823,1268.905a73.593,73.593,0,0,0,13.781-2.027c.433-.107.3-.789-.134-.682Z" transform="translate(-473.16 -778.421)" fill="#efefef" opacity="0.95" style="isolation: isolate"/>
    <path id="Trazado_114158" data-name="Trazado 114158" d="M821.578,1269.768c-3.442,5.914-8.487,12.9-14.333,17.688a31.6,31.6,0,0,1-11.43,6.427c-2.051.56-4.362.772-5.954-.076-2.365-1.259-2.108-4.3-.6-6.611,1.626-2.506,4.336-4.55,7.083-6.412,7.309-4.952,16.737-7.8,25.238-11.015" transform="translate(-474.406 -779.925)" fill="#efefef" opacity="0.95" style="isolation: isolate"/>
    <path id="Trazado_114159" data-name="Trazado 114159" d="M797.177,1266.831c-3.543,4-8.477,8.578-13.687,11.347a24.683,24.683,0,0,1-9.737,3.169,6.719,6.719,0,0,1-4.548-.972c-1.618-1.326-.955-3.613.551-5.155a19.486,19.486,0,0,1,6.408-3.824c6.356-2.671,14.011-3.4,21.015-4.565" transform="translate(-472.368 -779.623)" fill="#efefef" opacity="0.95" style="isolation: isolate"/>
    <path id="Trazado_114160" data-name="Trazado 114160" d="M792.752,1263.754c-6.844-.045-15.414-.947-22.474-3.638a31.609,31.609,0,0,1-11.261-6.719c-1.506-1.5-2.838-3.4-2.895-5.2-.084-2.677,2.678-3.964,5.434-3.813,2.984.164,6.105,1.5,9.086,2.957,7.931,3.877,15.088,10.643,22.109,16.417" transform="translate(-471.121 -777.316)" fill="#efefef" opacity="0.95" style="isolation: isolate"/>
    <path id="Trazado_114161" data-name="Trazado 114161" d="M814.87,1266.826a61.6,61.6,0,0,1-15.11-12.209,32.064,32.064,0,0,1-6.09-9.87c-.633-1.783-1.018-3.8-.514-5.2.749-2.089,3.132-1.917,5.073-.645a24.012,24.012,0,0,1,5.659,6.076c4.547,6.3,7.663,14.483,10.981,21.853" transform="translate(-474.9 -776.657)" fill="#efefef" opacity="0.95" style="isolation: isolate"/>
    <path id="Trazado_114162" data-name="Trazado 114162" d="M829.757,1267.912a39.539,39.539,0,0,1-9.693-7.832,20.576,20.576,0,0,1-3.906-6.332,5.448,5.448,0,0,1-.33-3.338c.48-1.34,2.009-1.229,3.255-.414a15.4,15.4,0,0,1,3.63,3.9c2.917,4.04,4.915,9.292,7.044,14.018" transform="translate(-477.237 -777.832)" fill="#efefef" opacity="0.95" style="isolation: isolate"/>
    <path id="Trazado_114163" data-name="Trazado 114163" d="M882.591,1215.458l-71.032,109.795,142.065-1.17Z" transform="translate(-476.814 -774.348)" fill="#efefef" opacity="0.95" style="isolation: isolate"/>
    <circle id="Elipse_4864" data-name="Elipse 4864" cx="47.415" cy="47.415" r="47.415" transform="translate(364.361 545.5)" fill="#ffd96e" opacity="0.45"/>
    <rect id="Rectángulo_34172" data-name="Rectángulo 34172" width="131.398" height="122.342" transform="translate(456.314 486.549)" fill="#ffd96e" opacity="0.45"/>
    <rect id="Rectángulo_34173" data-name="Rectángulo 34173" width="110.059" height="102.474" transform="translate(508.486 460.448)" fill="none" stroke="#02a2cb" stroke-miterlimit="10" stroke-width="1"/>
    <rect id="Rectángulo_34174" data-name="Rectángulo 34174" width="20.347" height="20.346" transform="translate(337.618 610.197)" fill="#1b1a1b"/>
    <rect id="Rectángulo_34175" data-name="Rectángulo 34175" width="20.346" height="20.346" transform="translate(357.965 610.197)" fill="#efde11" opacity="0.95" style="isolation: isolate"/>
    <rect id="Rectángulo_34176" data-name="Rectángulo 34176" width="20.347" height="20.346" transform="translate(378.312 610.197)" fill="#ea0080" opacity="0.95" style="isolation: isolate"/>
    <rect id="Rectángulo_34177" data-name="Rectángulo 34177" width="20.347" height="20.346" transform="translate(398.658 610.197)" fill="#02a2cb"/>
    <path id="Trazado_114164" data-name="Trazado 114164" d="M1049.849,1408.048a17.638,17.638,0,1,1-17.638-17.638A17.638,17.638,0,0,1,1049.849,1408.048Z" transform="translate(-497.665 -792.315)" fill="none" stroke="#febb09" stroke-miterlimit="10" stroke-width="1"/>
    <line id="Línea_286" data-name="Línea 286" y2="45.635" transform="translate(535.049 592.915)" fill="none" stroke="#010305" stroke-miterlimit="10" stroke-width="3"/>
    <line id="Línea_287" data-name="Línea 287" x1="45.635" transform="translate(512.231 615.732)" fill="none" stroke="#010305" stroke-miterlimit="10" stroke-width="3"/>
    <path id="Trazado_114165" data-name="Trazado 114165" d="M797.846,1368.26a11.879,11.879,0,1,1,11.878-11.879A11.893,11.893,0,0,1,797.846,1368.26Zm0-23.168a11.289,11.289,0,1,0,11.289,11.289A11.3,11.3,0,0,0,797.846,1345.092Z" transform="translate(-474.187 -787.601)" fill="#ff9500" opacity="0.95" style="isolation: isolate"/>
    <g id="Grupo_81314" data-name="Grupo 81314" transform="translate(323.535 553.359)">
      <path id="Trazado_114166" data-name="Trazado 114166" d="M799.071,1340.989v28.751c0,.389-.008.781,0,1.17,0,.017,0,.034,0,.05a.451.451,0,0,0,.9,0v-28.75c0-.39.009-.781,0-1.171v-.05a.451.451,0,0,0-.9,0Z" transform="translate(-799.067 -1340.554)" fill="#010305"/>
    </g>
    <g id="Grupo_81316" data-name="Grupo 81316" transform="translate(308.568 568.326)">
      <path id="Trazado_114167" data-name="Trazado 114167" d="M812.795,1357.238H784.043c-.389,0-.781-.009-1.17,0h-.05a.451.451,0,0,0,0,.9h28.75c.39,0,.781.008,1.171,0h.05a.451.451,0,0,0,0-.9Z" transform="translate(-782.387 -1357.234)" fill="#010305"/>
    </g>
    <path id="Trazado_114168" data-name="Trazado 114168" d="M1047.464,1223.146h28.172a3.923,3.923,0,0,1,3.86,3.228l2.076,11.549a13.575,13.575,0,0,0,13.362,11.174h0l-1.219-27.126a9.383,9.383,0,0,0-9.373-8.961H992.087a9.908,9.908,0,0,0-9.9,9.463l-1.2,26.625h0a13.578,13.578,0,0,0,13.363-11.176l2.18-12.12a3.226,3.226,0,0,1,3.176-2.655h28.748c.358,17.556.38,35.2.38,52.713V1286c0,17.725-.022,35.287-.372,52.5l-12.851,1.376a9.025,9.025,0,0,0-8.064,8.974h60.822a9.026,9.026,0,0,0-8.064-8.974l-12.847-1.375c-.354-17.487-.377-35.061-.377-52.5v-10.138C1047.086,1258.06,1047.109,1240.425,1047.464,1223.146Z" transform="translate(-494.216 -774.096)" fill="#ff9500" opacity="0.95" style="isolation: isolate"/>
    <path id="Trazado_114169" data-name="Trazado 114169" d="M884.216,1390.236H837.754a.619.619,0,0,1-.612-.712l2.691-17.469a.618.618,0,0,1,.611-.525H879.89a.618.618,0,0,1,.606.5l3.72,18.211Z" transform="translate(-479.441 -790.377)" fill="none" stroke="#4b0263" stroke-miterlimit="10" stroke-width="2"/>
    <path id="Trazado_114170" data-name="Trazado 114170" d="M899.708,1295.909l-37.1-61.345a1.109,1.109,0,0,0-2.057.573v54.713a5.488,5.488,0,1,1-2.888-.034V1234.97a1.109,1.109,0,0,0-2.04-.6L815.655,1296.4a1.109,1.109,0,0,0-.094,1.021l21.855,53.286a1.108,1.108,0,0,0,1.026.687h38.946a1.109,1.109,0,0,0,1.03-.7l21.373-53.8A1.107,1.107,0,0,0,899.708,1295.909Z" transform="translate(-477.217 -776.237)" fill="none" stroke="#4b0263" stroke-miterlimit="10" stroke-width="2"/>
    <path id="Trazado_114171" data-name="Trazado 114171" d="M797.479,1227.879s53.287-53.286,119.9,0" transform="translate(-475.368 -773.19)" fill="none" stroke="#4b0263" stroke-miterlimit="10" stroke-width="2"/>
    <path id="Trazado_114172" data-name="Trazado 114172" d="M798.777,1231.711a3.482,3.482,0,1,1-3.482-3.482A3.482,3.482,0,0,1,798.777,1231.711Z" transform="translate(-474.787 -775.658)" fill="#255065" opacity="0.95" style="isolation: isolate"/>
    <circle id="Elipse_4865" data-name="Elipse 4865" cx="3.482" cy="3.482" r="3.482" transform="translate(438.523 452.57)" fill="#255065" opacity="0.95" style="isolation: isolate"/>
    <rect id="Rectángulo_34178" data-name="Rectángulo 34178" width="5.891" height="5.891" transform="translate(379.112 428.061)" fill="#255065" opacity="0.95" style="isolation: isolate"/>
    <path id="Trazado_114173" data-name="Trazado 114173" d="M818.039,1455.509c21.315,17.051,40.354,16.166,52.571,12.417a57.468,57.468,0,0,0,21.691-12.376l.794.794a58.664,58.664,0,0,1-22.11,12.641c-12.487,3.842-31.93,4.775-53.648-12.6Z" transform="translate(-477.408 -799.001)" fill="#02a2cb"/>
    <path id="Trazado_114174" data-name="Trazado 114174" d="M900.013,1454.8a2.178,2.178,0,1,1,2.178,2.178A2.178,2.178,0,0,1,900.013,1454.8Z" transform="translate(-485.899 -798.704)" fill="#02a2cb"/>
    <path id="Trazado_114175" data-name="Trazado 114175" d="M815.3,1454.8a2.178,2.178,0,1,1,2.179,2.178A2.179,2.179,0,0,1,815.3,1454.8Z" transform="translate(-477.199 -798.704)" fill="#02a2cb"/>
    <rect id="Rectángulo_34179" data-name="Rectángulo 34179" width="3.686" height="3.686" transform="translate(379.627 673.605) rotate(180)" fill="#02a2cb"/>
    <path id="Trazado_114176" data-name="Trazado 114176" d="M1134.435,1297.024c-14.315-11.451-27.1-10.856-35.3-8.339a38.588,38.588,0,0,0-14.567,8.312l-.533-.534a39.385,39.385,0,0,1,14.848-8.488c8.385-2.581,21.443-3.206,36.027,8.461Z" transform="translate(-504.799 -781.636)" fill="#02a2cb"/>
    <circle id="Elipse_4866" data-name="Elipse 4866" cx="1.463" cy="1.463" r="1.463" transform="translate(577.362 514.204)" fill="#02a2cb"/>
    <circle id="Elipse_4867" data-name="Elipse 4867" cx="1.463" cy="1.463" r="1.463" transform="translate(628.408 514.204)" fill="#02a2cb"/>
    <rect id="Rectángulo_34180" data-name="Rectángulo 34180" width="2.475" height="2.475" transform="translate(603.447 503.906)" fill="#02a2cb"/>
    <path id="Trazado_114177" data-name="Trazado 114177" d="M943.889,1298.2l-12.219,2.5a.166.166,0,0,1-.2-.154l-.232-4.739a.168.168,0,0,1,.133-.171l10.374-2.121a.165.165,0,0,1,.186.1l1.958,4.59Z" transform="translate(-489.106 -782.363)" fill="#255065" opacity="0.95" style="isolation: isolate"/>
    <path id="Trazado_114178" data-name="Trazado 114178" d="M943.193,1272.541,930.138,1258.4a.3.3,0,0,0-.51.262l2.943,14.388a1.473,1.473,0,1,1-.761.146l-2.95-14.423a.3.3,0,0,0-.569-.048l-7.176,18.462a.3.3,0,0,0,.031.274l8.613,12.838a.3.3,0,0,0,.307.127l10.242-2.1a.3.3,0,0,0,.233-.24l2.727-15.3A.3.3,0,0,0,943.193,1272.541Z" transform="translate(-488.064 -778.748)" fill="#255065" opacity="0.95" style="isolation: isolate"/>
    <rect id="Rectángulo_34181" data-name="Rectángulo 34181" width="12.636" height="62.89" transform="translate(442.365 518.179) rotate(-11.56)" fill="#ff9500" opacity="0.95" style="isolation: isolate"/>
    <rect id="Rectángulo_34182" data-name="Rectángulo 34182" width="12.636" height="62.89" transform="matrix(1, -0.027, 0.027, 1, 460.634, 498.481)" fill="#0ca4ca" opacity="0.95" style="isolation: isolate"/>
    <path id="Trazado_114179" data-name="Trazado 114179" d="M964.494,1278.662l-12.468.332a.165.165,0,0,1-.169-.187l.6-4.706a.165.165,0,0,1,.161-.145l10.584-.283a.167.167,0,0,1,.166.128l1.129,4.861Z" transform="translate(-491.224 -780.326)" fill="none" stroke="#4b0263" stroke-miterlimit="10" stroke-width="1"/>
    <path id="Trazado_114180" data-name="Trazado 114180" d="M968.013,1253.241l-10.393-16.2a.3.3,0,0,0-.547.169l.391,14.682a1.474,1.474,0,1,1-.775.012l-.392-14.718a.3.3,0,0,0-.552-.146l-10.282,16.93a.3.3,0,0,0-.018.275l6.246,14.141a.3.3,0,0,0,.28.178l10.45-.279a.3.3,0,0,0,.272-.195l5.35-14.589A.3.3,0,0,0,968.013,1253.241Z" transform="translate(-490.563 -776.55)" fill="none" stroke="#4b0263" stroke-miterlimit="10" stroke-width="1"/>
    <path id="Trazado_114181" data-name="Trazado 114181" d="M988.479,1296.9l-12.293-3.047,1.263-5.151,12.192,3.168-1.161,5.031Z" transform="translate(-493.723 -781.869)" fill="#255065" opacity="0.95" style="isolation: isolate"/>
    <rect id="Rectángulo_34183" data-name="Rectángulo 34183" width="12.636" height="62.89" transform="matrix(0.971, 0.241, -0.241, 0.971, 482.538, 511.805)" fill="#ff9500" opacity="0.95" style="isolation: isolate"/>
    <path id="Trazado_114182" data-name="Trazado 114182" d="M989.78,1287.615l2.212-9.621-3.457-11.9-7.735,9.142-2.358,9.554Z" transform="translate(-493.954 -779.548)" fill="none" stroke="#4b0263" stroke-miterlimit="10" stroke-width="1"/>
    <line id="Línea_288" data-name="Línea 288" x2="6.412" y2="1.432" transform="translate(490.106 491.786)" fill="none" stroke="#4b0263" stroke-miterlimit="10" stroke-width="1"/>
    <path id="Rectángulo_34184" data-name="Rectángulo 34184" d="M3.294,0h51.7a3.342,3.342,0,0,1,3.342,3.342V58.5A25.367,25.367,0,0,1,32.966,83.869h-8.5A24.461,24.461,0,0,1,0,59.408V3.294A3.294,3.294,0,0,1,3.294,0Z" transform="translate(437.746 555.854)" fill="#255065" opacity="0.95" style="isolation: isolate"/>
    <rect id="Rectángulo_34185" data-name="Rectángulo 34185" width="58.333" height="7.791" transform="translate(437.746 564.885)" fill="#fdf6e6" opacity="0.2"/>
    <rect id="Rectángulo_34186" data-name="Rectángulo 34186" width="58.333" height="7.791" transform="translate(437.746 577.854)" fill="#fdf6e6" opacity="0.2"/>
    <line id="Línea_289" data-name="Línea 289" y2="124.492" transform="translate(604.833 547.72)" fill="none" stroke="#0ca4ca" stroke-miterlimit="10" stroke-width="2"/>
    <line id="Línea_290" data-name="Línea 290" x1="172.063" transform="translate(448.458 658.42)" fill="none" stroke="#0ca4ca" stroke-miterlimit="10" stroke-width="2"/>
    <path id="Trazado_114183" data-name="Trazado 114183" d="M1078.715,1446.631l-1.024-3a6.737,6.737,0,0,0-4.2-4.2l-3-1.024,3.056-1.114a6.8,6.8,0,0,0,4.057-4.057l1.114-3.055.781,2.453a7.681,7.681,0,0,0,4.993,4.993l2.453.781-2.523,1c-2.154.849-3.67,1.534-4.709,4.709Z" transform="translate(-503.407 -796.399)" fill="#255065" opacity="0.95" style="isolation: isolate"/>
    <path id="Trazado_114184" data-name="Trazado 114184" d="M1136.949,1368.739l-.67-1.966a4.413,4.413,0,0,0-2.754-2.753l-1.965-.67,2-.73a4.455,4.455,0,0,0,2.658-2.657l.729-2,.511,1.607a5.036,5.036,0,0,0,3.271,3.271l1.607.512-1.653.651a4.246,4.246,0,0,0-3.085,3.085Z" transform="translate(-509.68 -788.982)" fill="#fcb610"/>
    <path id="Trazado_114185" data-name="Trazado 114185" d="M1053.6,1450.817a4.184,4.184,0,1,1,4.184-4.183A4.189,4.189,0,0,1,1053.6,1450.817Zm0-7.112a2.928,2.928,0,1,0,2.928,2.929A2.932,2.932,0,0,0,1053.6,1443.705Z" transform="translate(-501.244 -797.66)" fill="#fcb610"/>
    <path id="Trazado_114186" data-name="Trazado 114186" d="M1143.326,1341.513a1.847,1.847,0,1,1,1.847-1.847A1.849,1.849,0,0,1,1143.326,1341.513Zm0-3.14a1.293,1.293,0,1,0,1.293,1.293A1.295,1.295,0,0,0,1143.326,1338.374Z" transform="translate(-510.699 -786.914)" fill="#fcb610"/>
    <path id="Trazado_114187" data-name="Trazado 114187" d="M999.318,1439.879a1.847,1.847,0,1,1,1.847-1.848A1.849,1.849,0,0,1,999.318,1439.879Zm0-3.141a1.293,1.293,0,1,0,1.292,1.293A1.294,1.294,0,0,0,999.318,1436.739Z" transform="translate(-495.908 -797.017)" fill="#fcb610"/>
    <path id="Trazado_114188" data-name="Trazado 114188" d="M944.868,1214.765l-1.023-3a6.738,6.738,0,0,0-4.2-4.2l-3-1.024,3.055-1.114a6.794,6.794,0,0,0,4.057-4.057l1.115-3.055.782,2.454a7.681,7.681,0,0,0,4.992,4.992l2.454.781-2.523,1c-2.154.849-3.671,1.534-4.709,4.709Z" transform="translate(-489.661 -772.586)" fill="#fcb610"/>
    <path id="Trazado_114189" data-name="Trazado 114189" d="M776.513,1313.344l-1.023-3a6.738,6.738,0,0,0-4.2-4.2l-3-1.023,3.055-1.115a6.8,6.8,0,0,0,4.057-4.057l1.114-3.056.781,2.454a7.685,7.685,0,0,0,4.993,4.992l2.454.782-2.523.994c-2.154.849-3.671,1.534-4.71,4.709Z" transform="translate(-472.371 -782.711)" fill="#ff9500" opacity="0.95" style="isolation: isolate"/>
    <path id="Trazado_114190" data-name="Trazado 114190" d="M838.726,1449.767l-.717-2.1a4.719,4.719,0,0,0-2.944-2.944l-2.1-.717,2.14-.781a4.757,4.757,0,0,0,2.841-2.841l.781-2.14.546,1.718a5.383,5.383,0,0,0,3.5,3.5l1.718.546-1.767.7a4.543,4.543,0,0,0-3.3,3.3Z" transform="translate(-479.014 -797.229)" fill="#255065" opacity="0.95" style="isolation: isolate"/>
    <path id="Trazado_114191" data-name="Trazado 114191" d="M966.464,1227.271a4.184,4.184,0,1,1,4.184-4.184A4.188,4.188,0,0,1,966.464,1227.271Zm0-7.112a2.928,2.928,0,1,0,2.929,2.928A2.931,2.931,0,0,0,966.464,1220.159Z" transform="translate(-492.295 -774.702)" fill="#fcb610"/>
    <path id="Trazado_114192" data-name="Trazado 114192" d="M795.214,1407.6a4.184,4.184,0,1,1,4.184-4.183A4.188,4.188,0,0,1,795.214,1407.6Zm0-7.112a2.928,2.928,0,1,0,2.929,2.929A2.932,2.932,0,0,0,795.214,1400.49Z" transform="translate(-474.707 -793.223)" fill="#fcb610"/>
    <path id="Trazado_114193" data-name="Trazado 114193" d="M857.26,1442.222a1.847,1.847,0,1,1,1.847-1.848A1.85,1.85,0,0,1,857.26,1442.222Zm0-3.14a1.293,1.293,0,1,0,1.292,1.292A1.294,1.294,0,0,0,857.26,1439.083Z" transform="translate(-481.319 -797.258)" fill="#fcb610"/>
    <path id="Trazado_114194" data-name="Trazado 114194" d="M835.4,1235.8a1.847,1.847,0,1,1,1.848-1.847A1.848,1.848,0,0,1,835.4,1235.8Zm0-3.14a1.293,1.293,0,1,0,1.293,1.293A1.294,1.294,0,0,0,835.4,1232.664Z" transform="translate(-479.074 -776.058)" fill="#fcb610"/>
    <path id="Trazado_114195" data-name="Trazado 114195" d="M969.673,1202.549a1.847,1.847,0,1,1,1.848-1.847A1.849,1.849,0,0,1,969.673,1202.549Zm0-3.14a1.293,1.293,0,1,0,1.293,1.293A1.294,1.294,0,0,0,969.673,1199.41Z" transform="translate(-492.864 -772.643)" fill="#fcb610"/>
    <path id="Trazado_114196" data-name="Trazado 114196" d="M792.682,1329.863a4.184,4.184,0,1,1,4.184-4.183A4.188,4.188,0,0,1,792.682,1329.863Zm0-7.112a2.928,2.928,0,1,0,2.929,2.929A2.932,2.932,0,0,0,792.682,1322.751Z" transform="translate(-474.447 -785.238)" fill="#fcb610"/>
  </g>
</svg>
