<svg xmlns="http://www.w3.org/2000/svg" width="295" height="295.5" viewBox="0 0 295 295.5">
  <g id="_11" data-name="11" transform="translate(-390 -4473)">
    <g id="Grupo_81373" data-name="Grupo 81373" transform="translate(413 4496.07)">
      <g id="Grupo_81370" data-name="Grupo 81370">
        <rect id="Rectángulo_34193" data-name="Rectángulo 34193" width="230.725" height="230.725" rx="11.5" fill="#dee4f0" opacity="0.95" style="isolation: isolate"/>
        <path id="Trazado_114208" data-name="Trazado 114208" d="M527.691,1409.562H490.072l37.618-37.618Z" transform="translate(-316.088 -1197.019)" fill="#dee4f0"/>
      </g>
      <g id="Grupo_81372" data-name="Grupo 81372" transform="translate(56.724 46.231)">
        <path id="Trazado_114209" data-name="Trazado 114209" d="M558.437,1444.976H443.316V1329.855Z" transform="translate(-443.316 -1306.713)" fill="#a09f9f" stroke="#000" stroke-miterlimit="10" stroke-width="2"/>
        <path id="Trazado_114210" data-name="Trazado 114210" d="M500.886,1397.014H451.659v-49.227Z" transform="translate(-430.735 -1279.675)" fill="#dee4f0" stroke="#000" stroke-linecap="round" stroke-linejoin="round" stroke-width="2"/>
        <g id="Grupo_81371" data-name="Grupo 81371" transform="translate(57.012)">
          <path id="Trazado_114211" data-name="Trazado 114211" d="M520.09,1340.369l-19.742,30.171-19.8,1.132L470.177,1350.8l19.742-30.171" transform="translate(-459.825 -1320.628)" fill="#a09f9f" stroke="#000" stroke-miterlimit="10" stroke-width="2"/>
          <path id="Trazado_114212" data-name="Trazado 114212" d="M476.4,1332.658,466.049,1381.4l40.522-29-13.682-3.152-3.209-15.358Z" transform="translate(-466.049 -1302.487)" fill="#efefef" stroke="#000" stroke-linecap="round" stroke-linejoin="round" stroke-width="2"/>
          <path id="Trazado_114213" data-name="Trazado 114213" d="M466.049,1363.519l4.035-19,7.355,1.594.222,3.46,5.616,1.616Z" transform="translate(-466.049 -1284.603)" stroke="#000" stroke-linecap="round" stroke-linejoin="round" stroke-width="2"/>
        </g>
      </g>
    </g>
    <g id="Grupo_81433" data-name="Grupo 81433" transform="translate(0 2811)">
      <circle id="Elipse_4857" data-name="Elipse 4857" cx="42.5" cy="42.5" r="42.5" transform="translate(685 1747) rotate(180)" fill="#ff9500" opacity="0.8" style="mix-blend-mode: multiply;isolation: isolate"/>
      <circle id="Elipse_4858" data-name="Elipse 4858" cx="63.75" cy="63.75" r="63.75" transform="translate(517.5 1957.5) rotate(180)" fill="#0ca4ca" style="mix-blend-mode: multiply;isolation: isolate"/>
    </g>
  </g>
</svg>
