<svg xmlns="http://www.w3.org/2000/svg" width="295" height="295.5" viewBox="0 0 295 295.5">
  <g id="_16" data-name="16" transform="translate(-390 -7008)">
    <g id="Grupo_81386" data-name="Grupo 81386" transform="translate(413 7031.07)">
      <g id="Grupo_81384" data-name="Grupo 81384">
        <rect id="Rectángulo_34201" data-name="Rectángulo 34201" width="230.725" height="230.725" rx="11.5" fill="#dee4f0" opacity="0.95" style="isolation: isolate"/>
        <path id="Trazado_114219" data-name="Trazado 114219" d="M322.641,1530.49H285.023l37.618-37.618Z" transform="translate(-111.039 -1317.947)" fill="#727997"/>
      </g>
      <g id="Grupo_81385" data-name="Grupo 81385" transform="translate(55.62 54.426)">
        <path id="Trazado_114220" data-name="Trazado 114220" d="M278.878,1460.769l-11.549-1.1v-14.844H309.3l37.385,105.742h.183l10.445.552v15.576H310.03V1551.85l6.964-.552c3.847-.364,5.683-1.462,4.4-5.495l-3.85-11.363H274.662l-5.5,16.126,10.992.552v15.576h-42.33V1551.85l6.047-.552c3.117-.364,4.216-1.647,5.5-5.129Zm.181,56.811h34.087l-16.492-52.229H296.1Z" transform="translate(-237.826 -1444.824)" fill="#efefef" stroke="#000" stroke-miterlimit="10" stroke-width="2"/>
      </g>
    </g>
    <g id="Grupo_81449" data-name="Grupo 81449" transform="translate(0 5346)">
      <circle id="Elipse_4857" data-name="Elipse 4857" cx="42.5" cy="42.5" r="42.5" transform="translate(685 1747) rotate(180)" fill="#ff9500" opacity="0.8" style="mix-blend-mode: multiply;isolation: isolate"/>
      <circle id="Elipse_4858" data-name="Elipse 4858" cx="63.75" cy="63.75" r="63.75" transform="translate(517.5 1957.5) rotate(180)" fill="#0ca4ca" style="mix-blend-mode: multiply;isolation: isolate"/>
    </g>
  </g>
</svg>
