<svg xmlns="http://www.w3.org/2000/svg" width="295" height="295.5" viewBox="0 0 295 295.5">
  <g id="_18" data-name="18" transform="translate(-390 -8022)">
    <g id="Grupo_81392" data-name="Grupo 81392" transform="translate(413 8045.07)">
      <g id="Grupo_81390" data-name="Grupo 81390">
        <rect id="Rectángulo_34207" data-name="Rectángulo 34207" width="230.725" height="230.725" rx="11.5" fill="#dee4f0" opacity="0.95" style="isolation: isolate"/>
        <path id="Trazado_114222" data-name="Trazado 114222" d="M527.743,1530.49H490.125l37.618-37.618Z" transform="translate(-316.141 -1317.947)" fill="#727997"/>
      </g>
      <g id="Grupo_81391" data-name="Grupo 81391" transform="translate(75.514 48.2)">
        <path id="Trazado_114223" data-name="Trazado 114223" d="M502.64,1506.524H458.764a.586.586,0,0,1-.579-.672l2.54-16.5a.588.588,0,0,1,.579-.5h37.25a.583.583,0,0,1,.572.469l3.513,17.2Z" transform="translate(-439.826 -1372.2)" fill="#efefef" stroke="#000" stroke-linecap="round" stroke-linejoin="round" stroke-width="2"/>
        <path id="Trazado_114224" data-name="Trazado 114224" d="M530.4,1500.939l-35.03-57.932a1.047,1.047,0,0,0-1.944.542v51.667a5.182,5.182,0,1,1-2.726-.033v-51.792a1.048,1.048,0,0,0-1.929-.569L451.027,1501.4a1.047,1.047,0,0,0-.088.966l20.64,50.321a1.043,1.043,0,0,0,.968.65h36.778a1.05,1.05,0,0,0,.973-.66l20.183-50.807A1.044,1.044,0,0,0,530.4,1500.939Z" transform="translate(-450.861 -1442.342)" fill="#efefef" stroke="#000" stroke-linecap="round" stroke-linejoin="round" stroke-width="2"/>
      </g>
    </g>
    <g id="Grupo_81456" data-name="Grupo 81456" transform="translate(0 6360)">
      <circle id="Elipse_4857" data-name="Elipse 4857" cx="42.5" cy="42.5" r="42.5" transform="translate(685 1747) rotate(180)" fill="#ff9500" opacity="0.8" style="mix-blend-mode: multiply;isolation: isolate"/>
      <circle id="Elipse_4858" data-name="Elipse 4858" cx="63.75" cy="63.75" r="63.75" transform="translate(517.5 1957.5) rotate(180)" fill="#0ca4ca" style="mix-blend-mode: multiply;isolation: isolate"/>
    </g>
  </g>
</svg>
