<svg xmlns="http://www.w3.org/2000/svg" width="136" height="136" viewBox="0 0 136 136">
  <g id="_2" data-name="2" transform="translate(-635.739 -1234.892)">
    <circle id="Elipse_4909" data-name="Elipse 4909" cx="68" cy="68" r="68" transform="translate(635.739 1234.892)" fill="#ff9500" opacity="0.95" style="isolation: isolate"/>
    <circle id="Elipse_4910" data-name="Elipse 4910" cx="55" cy="55" r="55" transform="translate(648.739 1247.892)" fill="#efefef" opacity="0.95" style="isolation: isolate"/>
    <g id="Grupo_81535" data-name="Grupo 81535" opacity="0.95" style="isolation: isolate">
      <g id="Grupo_81534" data-name="Grupo 81534">
        <path id="Trazado_114233" data-name="Trazado 114233" d="M706.3,1287.2a2.962,2.962,0,0,0-5.116,0l-6.955,12.047a1.429,1.429,0,1,0,2.475,1.429l5.609-9.715v20.319a4.573,4.573,0,1,0,2.858,0v-20.319l15.08,26.117a.1.1,0,0,1,.006.091l-2.533,5.644a.131.131,0,0,1-.1.058,9.558,9.558,0,0,0-6.961,4.624H696.823a9.56,9.56,0,0,0-6.962-4.624.135.135,0,0,1-.1-.058l-2.531-5.643a.1.1,0,0,1,0-.089l6.094-10.555a1.429,1.429,0,0,0-2.476-1.429l-6.1,10.559a2.971,2.971,0,0,0-.135,2.682l2.533,5.645a2.956,2.956,0,0,0,2.373,1.726,6.481,6.481,0,0,1,3.738,1.84,4.483,4.483,0,0,0-3.786,4.423v4.12a4.481,4.481,0,0,0,2.363,3.946v8.681a2.957,2.957,0,0,0,2.954,2.954h7.5a1.43,1.43,0,0,0,0-2.859h-7.5a.1.1,0,0,1-.1-.1v-8.149h18.088v8.149a.1.1,0,0,1-.095.1h-3.732a1.43,1.43,0,0,0,0,2.859h3.732a2.957,2.957,0,0,0,2.953-2.954v-8.681a4.483,4.483,0,0,0,2.363-3.946v-4.12a4.483,4.483,0,0,0-3.785-4.423,6.469,6.469,0,0,1,3.736-1.84,2.958,2.958,0,0,0,2.374-1.726l2.533-5.647a2.97,2.97,0,0,0-.138-2.684Zm-2.558,30.14a1.715,1.715,0,1,1,1.715-1.715,1.716,1.716,0,0,1-1.715,1.715Zm11.408,14.633v4.12a1.621,1.621,0,0,1-1.62,1.619H693.952a1.621,1.621,0,0,1-1.62-1.619v-4.12a1.622,1.622,0,0,1,1.62-1.62h19.575a1.623,1.623,0,0,1,1.62,1.62Zm0,0" fill="#255065"/>
        <path id="Trazado_114234" data-name="Trazado 114234" d="M750.33,1254.11h-6.1a2.194,2.194,0,0,0-2.191,2.192v1.619H708.78a5.249,5.249,0,0,0-10.082,0h-33.26V1256.3a2.2,2.2,0,0,0-2.192-2.192h-6.1a2.2,2.2,0,0,0-2.192,2.192v6.1a2.2,2.2,0,0,0,2.192,2.191h6.1a2.2,2.2,0,0,0,2.192-2.191v-1.62h23.254a40.933,40.933,0,0,0-25.515,32.8h-1.955a2.195,2.195,0,0,0-2.192,2.192v6.1a2.194,2.194,0,0,0,2.192,2.192h6.1a2.195,2.195,0,0,0,2.192-2.192v-6.1a2.2,2.2,0,0,0-2.192-2.192h-1.26A38.053,38.053,0,0,1,698.8,1261.1a5.249,5.249,0,0,0,9.877,0,38.054,38.054,0,0,1,32.742,32.48h-1.26a2.194,2.194,0,0,0-2.191,2.192v6.1a2.193,2.193,0,0,0,2.191,2.192h6.1a2.194,2.194,0,0,0,2.191-2.192v-6.1a2.194,2.194,0,0,0-2.191-2.192H744.3a40.934,40.934,0,0,0-25.516-32.8h23.255v1.62a2.194,2.194,0,0,0,2.191,2.191h6.1a2.194,2.194,0,0,0,2.191-2.191v-6.1a2.194,2.194,0,0,0-2.191-2.192Zm-87.751,7.623h-4.763v-4.764h4.763Zm4.073,39.468h-4.763v-4.764h4.763Zm78.939,0h-4.764v-4.764h4.764Zm-41.852-39.468a2.382,2.382,0,1,1,2.382-2.382,2.385,2.385,0,0,1-2.382,2.382Zm45.924,0H744.9v-4.764h4.764Zm0,0" fill="#255065"/>
      </g>
    </g>
  </g>
</svg>
