<svg xmlns="http://www.w3.org/2000/svg" width="136" height="136" viewBox="0 0 136 136">
  <g id="_4" data-name="4" transform="translate(-635.935 -1234.602)">
    <circle id="Elipse_4913" data-name="Elipse 4913" cx="68" cy="68" r="68" transform="translate(635.935 1234.602)" fill="#ff9500" opacity="0.95" style="isolation: isolate"/>
    <circle id="Elipse_4914" data-name="Elipse 4914" cx="55" cy="55" r="55" transform="translate(648.935 1247.602)" fill="#efefef" opacity="0.95" style="isolation: isolate"/>
    <g id="Grupo_81541" data-name="Grupo 81541" opacity="0.95" style="isolation: isolate">
      <path id="Trazado_114241" data-name="Trazado 114241" d="M743.864,1259.743H690.989a1.256,1.256,0,0,0,0,2.512h52.875a.418.418,0,0,1,.418.418v13.293a.419.419,0,0,1-.418.419h-5.391v-7.115a1.256,1.256,0,0,0-2.511,0v7.115h-5.81v-3.767a1.256,1.256,0,0,0-2.511,0v3.767h-5.809v-7.115a1.256,1.256,0,0,0-2.511,0v7.115h-5.81v-3.767a1.256,1.256,0,0,0-2.511,0v3.767h-5.809v-7.115a1.256,1.256,0,0,0-2.511,0v7.115h-5.809v-3.767a1.256,1.256,0,0,0-2.511,0v3.767h-5.81v-7.115a1.256,1.256,0,0,0-2.512,0v7.115h-5.809v-14.13h4.9a1.256,1.256,0,0,0,0-2.512H664.007a2.911,2.911,0,0,0-1.969.768,1.084,1.084,0,0,0-.1.091c-.032.033-.063.067-.092.1a2.918,2.918,0,0,0-.766,1.969v79.857a2.933,2.933,0,0,0,2.93,2.93H677.3a2.933,2.933,0,0,0,2.929-2.93v-13.711h46.659a3.268,3.268,0,0,0,3.264-3.265v-8.287a1.256,1.256,0,0,0-2.511,0v8.287a.754.754,0,0,1-.753.754H680.229v-14.227a1.261,1.261,0,0,0,0-2.316V1278.9H711a1.256,1.256,0,0,0,2.511,0h14.13v32.512a1.256,1.256,0,0,0,2.511,0V1278.9h13.712a2.934,2.934,0,0,0,2.93-2.93v-13.293a2.934,2.934,0,0,0-2.93-2.93Zm-80.276,16.642v-12.354l12.354,12.354Zm14.13-1.776-12.354-12.354h12.354Zm-.418,68.34H664.007a.419.419,0,0,1-.419-.419V1278.9h14.13v5.809H670.6a1.256,1.256,0,0,0,0,2.511h7.115v5.81h-3.767a1.256,1.256,0,0,0,0,2.511h3.767v5.809H670.6a1.256,1.256,0,0,0,0,2.511h7.115v5.809h-3.767a1.256,1.256,0,0,0,0,2.512h3.767v5.81H670.6a1.256,1.256,0,0,0,0,2.511h7.115v5.809h-3.767a1.256,1.256,0,0,0,0,2.511h3.767v5.81H670.6a1.256,1.256,0,0,0,0,2.511h7.115v5.39a.419.419,0,0,1-.418.419Zm0,0" fill="#255065"/>
      <path id="Trazado_114242" data-name="Trazado 114242" d="M694.229,1309.666a1.256,1.256,0,0,0,0,2.512h2.287a1.256,1.256,0,0,0,0-2.512Zm0,0" fill="#255065"/>
      <path id="Trazado_114243" data-name="Trazado 114243" d="M685.842,1309.666a1.256,1.256,0,0,0,0,2.512h2.287a1.256,1.256,0,0,0,0-2.512Zm0,0" fill="#255065"/>
      <path id="Trazado_114244" data-name="Trazado 114244" d="M702.614,1309.666a1.256,1.256,0,0,0,0,2.512H704.9a1.256,1.256,0,0,0,0-2.512Zm0,0" fill="#255065"/>
      <path id="Trazado_114245" data-name="Trazado 114245" d="M712.255,1308.411a2.808,2.808,0,0,0-1.255,3.767h1.255a1.255,1.255,0,0,0,1.256-1.256v-1.256a1.255,1.255,0,0,0-1.256-1.255Zm0,0" fill="#255065"/>
      <path id="Trazado_114246" data-name="Trazado 114246" d="M713.511,1301.411a1.256,1.256,0,0,0-2.511,0v2.252a1.256,1.256,0,0,0,2.511,0Zm0,0" fill="#255065"/>
      <path id="Trazado_114247" data-name="Trazado 114247" d="M713.511,1284.9a1.256,1.256,0,0,0-2.511,0v2.252a1.256,1.256,0,0,0,2.511,0Zm0,0" fill="#255065"/>
      <path id="Trazado_114248" data-name="Trazado 114248" d="M713.511,1293.156a1.256,1.256,0,0,0-2.511,0v2.251a1.256,1.256,0,0,0,2.511,0Zm0,0" fill="#255065"/>
    </g>
  </g>
</svg>
