<svg xmlns="http://www.w3.org/2000/svg" width="136" height="136" viewBox="0 0 136 136">
  <g id="_5" data-name="5" transform="translate(-635.911 -1233.268)">
    <circle id="Elipse_4915" data-name="Elipse 4915" cx="68" cy="68" r="68" transform="translate(635.911 1233.267)" fill="#ff9500" opacity="0.95" style="isolation: isolate"/>
    <circle id="Elipse_4916" data-name="Elipse 4916" cx="55" cy="55" r="55" transform="translate(648.911 1246.267)" fill="#efefef" opacity="0.95" style="isolation: isolate"/>
    <g id="Grupo_81550" data-name="Grupo 81550" opacity="0.95" style="isolation: isolate">
      <g id="Grupo_81549" data-name="Grupo 81549">
        <path id="Trazado_114249" data-name="Trazado 114249" d="M763.85,1295.92a84.225,84.225,0,0,0-28.041-18.621,85.156,85.156,0,0,0-75.173,5.651,1.82,1.82,0,1,0,1.86,3.13,80.57,80.57,0,0,1,12.569-6.062c-9.253,12.168-9.241,30.367.026,42.522a80.87,80.87,0,0,1-28.543-18.513,3.925,3.925,0,0,1,0-5.531,81.838,81.838,0,0,1,9.02-7.795,1.821,1.821,0,0,0-2.173-2.923,85.741,85.741,0,0,0-9.422,8.141,7.588,7.588,0,0,0,0,10.685,84.219,84.219,0,0,0,28.04,18.621,85.15,85.15,0,0,0,63.8,0,84.207,84.207,0,0,0,28.039-18.62,7.589,7.589,0,0,0,0-10.685Zm-2.576,8.109a80.873,80.873,0,0,1-28.525,18.505,35.637,35.637,0,0,0,6.859-18.151,1.821,1.821,0,0,0-3.628-.314,32.061,32.061,0,0,1-10.109,20.728,82.263,82.263,0,0,1-43.918,0c-13.5-12.074-13.516-34.94-.039-47.035a81.932,81.932,0,0,1,43.957-.036,32.3,32.3,0,0,1,9.808,18.3,1.821,1.821,0,1,0,3.594-.588,35.854,35.854,0,0,0-6.539-15.456,80.885,80.885,0,0,1,28.542,18.513,3.929,3.929,0,0,1,0,5.532Zm0,0" fill="#255065"/>
      </g>
      <path id="Trazado_114250" data-name="Trazado 114250" d="M723.079,1310.318l-1.691-.985v-16.549a2.8,2.8,0,0,0-1.4-2.419l-14.26-8.232v-2.8a1.821,1.821,0,0,0-3.642,0v2.8l-14.259,8.232a2.8,2.8,0,0,0-1.4,2.419v16.528l-2.111,1.227a1.82,1.82,0,1,0,1.829,3.148l2.157-1.253,14.206,8.2a2.8,2.8,0,0,0,2.792,0l14.186-8.19,1.751,1.019a1.821,1.821,0,1,0,1.834-3.147Zm-5.333-17.044v13.938l-12.013-7v-13.874Zm-27.67,0,12.015-6.936v13.874l-12.015,6.983Zm13.835,23.963-11.972-6.913,11.972-6.958,11.959,6.967Zm0,0" fill="#255065"/>
    </g>
  </g>
</svg>
