<svg xmlns="http://www.w3.org/2000/svg" width="136" height="136" viewBox="0 0 136 136">
  <g id="_6" data-name="6" transform="translate(-649.872 -1233.945)">
    <circle id="Elipse_4917" data-name="Elipse 4917" cx="68" cy="68" r="68" transform="translate(649.871 1233.945)" fill="#ff9500" opacity="0.95" style="isolation: isolate"/>
    <circle id="Elipse_4918" data-name="Elipse 4918" cx="55" cy="55" r="55" transform="translate(662.871 1246.945)" fill="#efefef" opacity="0.95" style="isolation: isolate"/>
    <g id="Grupo_81564" data-name="Grupo 81564" opacity="0.95" style="isolation: isolate">
      <g id="Grupo_81563" data-name="Grupo 81563">
        <path id="Trazado_114251" data-name="Trazado 114251" d="M773.273,1338.951l-1.1-5.87a1.625,1.625,0,0,0-3.194.6l.585,3.128-9.455-5.457a5.547,5.547,0,0,0-3.528-6.108V1293.31a5.522,5.522,0,1,0-5.441-9.428l-11.826-6.828a1.625,1.625,0,0,0-1.624,2.814l11.669,6.738a5.516,5.516,0,0,0-.076,2.755l-27.4,15.824a5.54,5.54,0,0,0-8.026,0l-27.405-15.824a5.517,5.517,0,0,0-.075-2.755l27.536-15.9a5.544,5.544,0,0,0,7.912,0l9.3,5.367a1.624,1.624,0,1,0,1.624-2.813l-9.438-5.45a5.548,5.548,0,0,0-3.812-6.231l0-10.2,2.417,2.07a1.625,1.625,0,0,0,2.113-2.469l-4.535-3.882a2.475,2.475,0,0,0-3.24,0l-4.534,3.883a1.624,1.624,0,0,0,2.112,2.468l2.419-2.072v10.2a5.547,5.547,0,0,0-3.816,6.232l-27.836,16.07a5.522,5.522,0,1,0-5.44,9.428v31.931a5.55,5.55,0,0,0-3.529,6.107l-9.454,5.459.584-3.129a1.624,1.624,0,1,0-3.193-.6l-1.1,5.87a2.479,2.479,0,0,0,1.62,2.806l5.63,1.985a1.624,1.624,0,1,0,1.081-3.063l-3-1.058,9.3-5.37a5.548,5.548,0,0,0,7.353.535l15.253,8.807a1.625,1.625,0,1,0,1.625-2.814l-15-8.662a5.557,5.557,0,0,0-3.921-7.054v-31.575a5.531,5.531,0,0,0,2.422-1.314l27.589,15.93a5.549,5.549,0,0,0,3.83,6.147v32.34a5.531,5.531,0,0,0-2.347,1.445l-6-3.464a1.624,1.624,0,1,0-1.624,2.813l6.152,3.553a5.522,5.522,0,1,0,10.886,0l27.978-16.153a5.546,5.546,0,0,0,7.351-.533l9.3,5.369-3,1.058a1.624,1.624,0,1,0,1.081,3.063l5.63-1.985a2.476,2.476,0,0,0,1.62-2.806Zm-55.4-74.367a2.274,2.274,0,1,1-2.274,2.275,2.277,2.277,0,0,1,2.274-2.275Zm-34.526,65.837a2.274,2.274,0,1,1-2.273-2.274,2.275,2.275,0,0,1,2.273,2.274Zm-2.273-40.017a2.273,2.273,0,1,1,2.273-2.274,2.277,2.277,0,0,1-2.273,2.274Zm75.872-2.274a2.275,2.275,0,1,1-2.274-2.275,2.276,2.276,0,0,1,2.274,2.275ZM717.871,1306.7a2.274,2.274,0,1,1-2.274,2.274,2.276,2.276,0,0,1,2.274-2.274Zm0,47.444a2.274,2.274,0,1,1,2.274-2.274,2.276,2.276,0,0,1-2.274,2.274Zm1.625-7.552v-32.34a5.549,5.549,0,0,0,3.83-6.147l27.589-15.93a5.52,5.52,0,0,0,2.422,1.314v31.575a5.557,5.557,0,0,0-3.922,7.054l-27.573,15.919a5.534,5.534,0,0,0-2.346-1.445Zm35.174-13.9a2.273,2.273,0,1,1,2.274-2.274,2.276,2.276,0,0,1-2.274,2.274Zm0,0" fill="#255065"/>
      </g>
    </g>
  </g>
</svg>
