<svg xmlns="http://www.w3.org/2000/svg" xmlns:xlink="http://www.w3.org/1999/xlink" width="829.834" height="249.815" viewBox="0 0 829.834 249.815">
  <defs>
    <linearGradient id="linear-gradient" x1="0.5" y1="1" x2="0.5" gradientUnits="objectBoundingBox">
      <stop offset="0" stop-color="#6d6d6c"/>
      <stop offset="1" stop-color="#fff"/>
    </linearGradient>
  </defs>
  <g id="_6" data-name="6" transform="translate(-385 -2059.518)">
    <g id="Grupo_81399" data-name="Grupo 81399" transform="translate(374.454 757.325)">
      <g id="Grupo_81359" data-name="Grupo 81359" transform="translate(11.079 1302.193)">
        <g id="Grupo_81358" data-name="Grupo 81358" opacity="0.95" style="isolation: isolate">
          <rect id="Rectángulo_34187" data-name="Rectángulo 34187" width="107.937" height="107.937" rx="11.5" fill="#546e7a"/>
        </g>
        <path id="Trazado_114197" data-name="Trazado 114197" d="M42.438,1320.261l-.909,47.562,10.62-4.616,9.821,22.6,15.064-6.547-9.821-22.6,10.62-4.616Z" transform="translate(-5.712 -1299.063)" fill="#efefef" stroke="#000" stroke-miterlimit="10" stroke-width="2"/>
      </g>
      <g id="Grupo_81362" data-name="Grupo 81362" transform="translate(131.246 1302.193)">
        <g id="Grupo_81360" data-name="Grupo 81360">
          <rect id="Rectángulo_34188" data-name="Rectángulo 34188" width="107.937" height="107.937" rx="11.5" fill="#546e7a" opacity="0.95" style="isolation: isolate"/>
          <path id="Trazado_114198" data-name="Trazado 114198" d="M199.523,1389.542h-17.6l17.6-17.6Z" transform="translate(-101.558 -1290.11)" fill="#a09f9f"/>
        </g>
        <g id="Grupo_81361" data-name="Grupo 81361" transform="translate(29.865 24.051)">
          <path id="Trazado_114199" data-name="Trazado 114199" d="M138.88,1381.216s3.658-18.288,18.288-36.577,18.29-21.947,18.29-21.947" transform="translate(-138.88 -1322.693)" fill="none" stroke="#000" stroke-linecap="round" stroke-linejoin="round" stroke-width="2"/>
          <path id="Trazado_114200" data-name="Trazado 114200" d="M159.7,1378.554v-32.92l23.775,23.775Z" transform="translate(-135.273 -1318.719)" fill="#efefef" stroke="#000" stroke-linecap="round" stroke-linejoin="round" stroke-width="2"/>
          <rect id="Rectángulo_34189" data-name="Rectángulo 34189" width="7.315" height="7.315" transform="translate(15.942 18.151)" fill="#efefef" stroke="#000" stroke-linecap="round" stroke-linejoin="round" stroke-width="2"/>
        </g>
      </g>
      <g id="Grupo_81365" data-name="Grupo 81365" transform="translate(251.414 1302.193)">
        <g id="Grupo_81363" data-name="Grupo 81363">
          <rect id="Rectángulo_34190" data-name="Rectángulo 34190" width="107.937" height="107.937" rx="11.5" fill="#546e7a" opacity="0.95" style="isolation: isolate"/>
          <path id="Trazado_114201" data-name="Trazado 114201" d="M301.947,1389.542h-17.6l17.6-17.6Z" transform="translate(-203.982 -1290.11)" fill="#a09f9f"/>
        </g>
        <g id="Grupo_81364" data-name="Grupo 81364" transform="translate(25.701 20.688)">
          <circle id="Elipse_4874" data-name="Elipse 4874" cx="22.433" cy="22.433" r="22.433" transform="translate(10.35)" fill="#efefef" stroke="#000" stroke-linecap="round" stroke-linejoin="round" stroke-width="2"/>
          <path id="Trazado_114202" data-name="Trazado 114202" d="M280.988,1350.021a16.369,16.369,0,0,1-22.661,4.734c-7.565-4.95,10.361-32.346,17.927-27.4A16.37,16.37,0,0,1,280.988,1350.021Z" transform="translate(-234.507 -1318.624)" fill="#a09f9f"/>
          <path id="Rectángulo_34191" data-name="Rectángulo 34191" d="M0,0H9.7a0,0,0,0,1,0,0V26.183A2.919,2.919,0,0,1,6.782,29.1H2.919A2.919,2.919,0,0,1,0,26.183V0A0,0,0,0,1,0,0Z" transform="translate(15.935 38.217) rotate(33.198)" fill="#a09f9f" stroke="#000" stroke-miterlimit="10" stroke-width="2"/>
        </g>
      </g>
      <g id="Grupo_81369" data-name="Grupo 81369" transform="translate(371.581 1302.193)">
        <g id="Grupo_81366" data-name="Grupo 81366">
          <rect id="Rectángulo_34192" data-name="Rectángulo 34192" width="107.937" height="107.937" rx="11.5" fill="#546e7a" opacity="0.95" style="isolation: isolate"/>
          <path id="Trazado_114203" data-name="Trazado 114203" d="M405.247,1389.542h-17.6l17.6-17.6Z" transform="translate(-306.255 -1290.11)" fill="#a09f9f"/>
        </g>
        <g id="Grupo_81368" data-name="Grupo 81368" transform="translate(28.422 21.992)">
          <path id="Trazado_114204" data-name="Trazado 114204" d="M343.536,1362.995c-2.068,3.187-.839,7.694,1.877,10.349s6.534,3.831,10.255,4.6a6.411,6.411,0,0,0,4.4-.2c2.926-1.636,1.849-5.976,2.232-9.306.753-6.562,8.8-10.179,15.234-8.709s11.459,6.368,16.052,11.113" transform="translate(-342.499 -1314.276)" fill="none" stroke="#000" stroke-linecap="round" stroke-linejoin="round" stroke-width="2"/>
          <g id="Grupo_81367" data-name="Grupo 81367" transform="translate(1.466)">
            <path id="Trazado_114205" data-name="Trazado 114205" d="M378.846,1332.735l-11.8,18.028-11.831.676-6.2-12.473,11.8-18.029" transform="translate(-342.835 -1320.938)" fill="#a09f9f" stroke="#000" stroke-miterlimit="10" stroke-width="2"/>
            <path id="Trazado_114206" data-name="Trazado 114206" d="M349.934,1336.3l-6.185,29.127,24.214-17.331-8.175-1.883-1.917-9.177Z" transform="translate(-343.748 -1318.276)" fill="#efefef" stroke="#000" stroke-linecap="round" stroke-linejoin="round" stroke-width="2"/>
            <path id="Trazado_114207" data-name="Trazado 114207" d="M343.748,1362.808l2.411-11.354,4.395.952.133,2.068,3.356.966Z" transform="translate(-343.748 -1315.652)" stroke="#000" stroke-linecap="round" stroke-linejoin="round" stroke-width="2"/>
          </g>
        </g>
      </g>
      <g id="Grupo_81373" data-name="Grupo 81373" transform="translate(491.749 1302.193)">
        <g id="Grupo_81370" data-name="Grupo 81370">
          <rect id="Rectángulo_34193" data-name="Rectángulo 34193" width="107.937" height="107.937" rx="11.5" fill="#546e7a" opacity="0.95" style="isolation: isolate"/>
          <path id="Trazado_114208" data-name="Trazado 114208" d="M507.671,1389.542h-17.6l17.6-17.6Z" transform="translate(-408.679 -1290.11)" fill="#a09f9f"/>
        </g>
        <g id="Grupo_81372" data-name="Grupo 81372" transform="translate(26.537 21.628)">
          <path id="Trazado_114209" data-name="Trazado 114209" d="M497.171,1383.711H443.316v-53.856Z" transform="translate(-443.316 -1319.029)" fill="#a09f9f" stroke="#000" stroke-miterlimit="10" stroke-width="2"/>
          <path id="Trazado_114210" data-name="Trazado 114210" d="M474.688,1370.816h-23.03v-23.03Z" transform="translate(-441.87 -1315.922)" fill="#546e7a" stroke="#000" stroke-linecap="round" stroke-linejoin="round" stroke-width="2"/>
          <g id="Grupo_81371" data-name="Grupo 81371" transform="translate(26.671)">
            <path id="Trazado_114211" data-name="Trazado 114211" d="M493.527,1329.863l-9.236,14.115-9.262.529-4.852-9.765,9.236-14.115" transform="translate(-465.334 -1320.627)" fill="#a09f9f" stroke="#000" stroke-miterlimit="10" stroke-width="2"/>
            <path id="Trazado_114212" data-name="Trazado 114212" d="M470.892,1332.658l-4.843,22.8,18.957-13.568-6.4-1.475-1.5-7.185Z" transform="translate(-466.049 -1318.543)" fill="#efefef" stroke="#000" stroke-linecap="round" stroke-linejoin="round" stroke-width="2"/>
            <path id="Trazado_114213" data-name="Trazado 114213" d="M466.049,1353.407l1.888-8.889,3.441.746.1,1.619,2.627.756Z" transform="translate(-466.049 -1316.489)" stroke="#000" stroke-linecap="round" stroke-linejoin="round" stroke-width="2"/>
          </g>
        </g>
      </g>
      <g id="Grupo_81375" data-name="Grupo 81375" transform="translate(611.916 1302.193)">
        <g id="Grupo_81374" data-name="Grupo 81374">
          <rect id="Rectángulo_34194" data-name="Rectángulo 34194" width="107.937" height="107.937" rx="11.5" fill="#546e7a" opacity="0.95" style="isolation: isolate"/>
          <path id="Trazado_114214" data-name="Trazado 114214" d="M610.1,1389.542H592.5l17.6-17.6Z" transform="translate(-511.104 -1290.11)" fill="#a09f9f"/>
        </g>
        <rect id="Rectángulo_34195" data-name="Rectángulo 34195" width="53.969" height="53.969" transform="translate(26.984 26.984)" fill="#efefef" stroke="#000" stroke-miterlimit="10" stroke-width="2"/>
      </g>
      <g id="Grupo_81377" data-name="Grupo 81377" transform="translate(732.084 1302.193)">
        <g id="Grupo_81376" data-name="Grupo 81376">
          <rect id="Rectángulo_34196" data-name="Rectángulo 34196" width="107.937" height="107.937" rx="11.5" fill="#546e7a" opacity="0.95" style="isolation: isolate"/>
          <path id="Trazado_114215" data-name="Trazado 114215" d="M712.52,1389.542h-17.6l17.6-17.6Z" transform="translate(-613.528 -1290.11)" fill="#a09f9f"/>
        </g>
        <ellipse id="Elipse_4875" data-name="Elipse 4875" cx="36.37" cy="27.553" rx="36.37" ry="27.553" transform="translate(17.598 26.415)" fill="#efefef" stroke="#000" stroke-miterlimit="10" stroke-width="2"/>
      </g>
      <g id="Grupo_81380" data-name="Grupo 81380" transform="translate(10.546 1444.071)">
        <g id="Grupo_81378" data-name="Grupo 81378">
          <rect id="Rectángulo_34197" data-name="Rectángulo 34197" width="107.937" height="107.937" rx="11.5" fill="#546e7a" opacity="0.95" style="isolation: isolate"/>
          <path id="Trazado_114216" data-name="Trazado 114216" d="M97.519,1510.47h-17.6l17.6-17.6Z" transform="translate(1.472 -1411.039)" fill="#a09f9f"/>
        </g>
        <g id="Grupo_81379" data-name="Grupo 81379" transform="translate(25.811 32.851)">
          <rect id="Rectángulo_34198" data-name="Rectángulo 34198" width="56.315" height="42.236" fill="#efefef" stroke="#000" stroke-miterlimit="10" stroke-width="2"/>
          <line id="Línea_291" data-name="Línea 291" x2="56.315" transform="translate(0 31.677)" fill="#efefef" stroke="#000" stroke-miterlimit="10" stroke-width="2"/>
          <line id="Línea_292" data-name="Línea 292" x2="56.315" transform="translate(0 21.118)" fill="#efefef" stroke="#000" stroke-miterlimit="10" stroke-width="2"/>
          <line id="Línea_293" data-name="Línea 293" x2="56.315" transform="translate(0 10.559)" fill="#efefef" stroke="#000" stroke-miterlimit="10" stroke-width="2"/>
          <line id="Línea_294" data-name="Línea 294" y2="42.236" transform="translate(37.543)" fill="#efefef" stroke="#000" stroke-miterlimit="10" stroke-width="2"/>
          <line id="Línea_295" data-name="Línea 295" y2="42.236" transform="translate(18.772)" fill="#efefef" stroke="#000" stroke-miterlimit="10" stroke-width="2"/>
        </g>
      </g>
      <g id="Grupo_81383" data-name="Grupo 81383" transform="translate(130.862 1444.071)">
        <g id="Grupo_81381" data-name="Grupo 81381">
          <rect id="Rectángulo_34199" data-name="Rectángulo 34199" width="107.937" height="107.937" rx="11.5" fill="#546e7a" opacity="0.95" style="isolation: isolate"/>
          <path id="Trazado_114217" data-name="Trazado 114217" d="M200.07,1510.47h-17.6l17.6-17.6Z" transform="translate(-101.079 -1411.039)" fill="#a09f9f"/>
        </g>
        <g id="Grupo_81382" data-name="Grupo 81382" transform="translate(28.158 25.29)">
          <path id="Trazado_114218" data-name="Trazado 114218" d="M137.1,1479.092v-34.415h34.415Z" transform="translate(-137.097 -1444.677)" fill="#efefef" stroke="#000" stroke-linecap="round" stroke-linejoin="round" stroke-width="2"/>
          <circle id="Elipse_4876" data-name="Elipse 4876" cx="17.207" cy="17.207" r="17.207" transform="translate(17.207 2.868)" fill="#efefef" stroke="#000" stroke-linecap="round" stroke-linejoin="round" stroke-width="2"/>
          <rect id="Rectángulo_34200" data-name="Rectángulo 34200" width="31.547" height="31.547" transform="translate(5.736 25.811)" fill="#efefef" stroke="#000" stroke-linecap="round" stroke-linejoin="round" stroke-width="2"/>
        </g>
      </g>
      <g id="Grupo_81386" data-name="Grupo 81386" transform="translate(251.178 1444.071)">
        <g id="Grupo_81384" data-name="Grupo 81384">
          <rect id="Rectángulo_34201" data-name="Rectángulo 34201" width="107.937" height="107.937" rx="11.5" fill="#546e7a" opacity="0.95" style="isolation: isolate"/>
          <path id="Trazado_114219" data-name="Trazado 114219" d="M302.621,1510.47h-17.6l17.6-17.6Z" transform="translate(-203.63 -1411.039)" fill="#a09f9f"/>
        </g>
        <g id="Grupo_81385" data-name="Grupo 81385" transform="translate(26.02 25.462)">
          <path id="Trazado_114220" data-name="Trazado 114220" d="M257.031,1452.284l-5.4-.515v-6.944h19.634l17.489,49.468h.086l4.887.258v7.287H271.6v-6.944l3.258-.258c1.8-.17,2.659-.684,2.058-2.571l-1.8-5.316H255.058l-2.572,7.544,5.142.258v7.287h-19.8v-6.944l2.829-.258c1.458-.17,1.972-.771,2.572-2.4Zm.084,26.577h15.947l-7.715-24.434h-.258Z" transform="translate(-237.826 -1444.824)" fill="#efefef" stroke="#000" stroke-miterlimit="10" stroke-width="2"/>
        </g>
      </g>
      <g id="Grupo_81389" data-name="Grupo 81389" transform="translate(371.494 1444.071)">
        <g id="Grupo_81387" data-name="Grupo 81387">
          <rect id="Rectángulo_34202" data-name="Rectángulo 34202" width="107.937" height="107.937" rx="11.5" fill="#546e7a" opacity="0.95" style="isolation: isolate"/>
          <path id="Trazado_114221" data-name="Trazado 114221" d="M405.172,1510.47h-17.6l17.6-17.6Z" transform="translate(-306.181 -1411.039)" fill="#a09f9f"/>
        </g>
        <g id="Grupo_81388" data-name="Grupo 81388" transform="translate(26.984 26.382)">
          <rect id="Rectángulo_34203" data-name="Rectángulo 34203" width="11.011" height="11.011" transform="translate(42.958)" fill="#efefef" stroke="#000" stroke-miterlimit="10" stroke-width="2"/>
          <rect id="Rectángulo_34204" data-name="Rectángulo 34204" width="18.568" height="18.568" transform="translate(30.518 6.088)" fill="#efefef" stroke="#000" stroke-miterlimit="10" stroke-width="2"/>
          <rect id="Rectángulo_34205" data-name="Rectángulo 34205" width="22.937" height="22.937" transform="translate(16.865 15.371)" fill="#efefef" stroke="#000" stroke-miterlimit="10" stroke-width="2"/>
          <rect id="Rectángulo_34206" data-name="Rectángulo 34206" width="28.334" height="28.334" transform="translate(0 26.84)" fill="#efefef" stroke="#000" stroke-miterlimit="10" stroke-width="2"/>
        </g>
      </g>
      <g id="Grupo_81392" data-name="Grupo 81392" transform="translate(491.81 1444.071)">
        <g id="Grupo_81390" data-name="Grupo 81390">
          <rect id="Rectángulo_34207" data-name="Rectángulo 34207" width="107.937" height="107.937" rx="11.5" fill="#546e7a" opacity="0.95" style="isolation: isolate"/>
          <path id="Trazado_114222" data-name="Trazado 114222" d="M507.723,1510.47h-17.6l17.6-17.6Z" transform="translate(-408.732 -1411.039)" fill="#a09f9f"/>
        </g>
        <g id="Grupo_81391" data-name="Grupo 81391" transform="translate(35.327 22.549)">
          <path id="Trazado_114223" data-name="Trazado 114223" d="M478.978,1497.122H458.452a.274.274,0,0,1-.271-.314l1.188-7.718a.275.275,0,0,1,.271-.232h17.426a.273.273,0,0,1,.268.219l1.644,8.045Z" transform="translate(-449.593 -1434.283)" fill="#efefef" stroke="#000" stroke-linecap="round" stroke-linejoin="round" stroke-width="2"/>
          <path id="Trazado_114224" data-name="Trazado 114224" d="M488.073,1469.755l-16.388-27.1a.49.49,0,0,0-.909.253v24.171a2.424,2.424,0,1,1-1.275-.015v-24.229a.49.49,0,0,0-.9-.266l-17.659,27.4a.49.49,0,0,0-.041.452l9.656,23.541a.488.488,0,0,0,.453.3h17.205a.491.491,0,0,0,.455-.309l9.442-23.769A.488.488,0,0,0,488.073,1469.755Z" transform="translate(-450.861 -1442.342)" fill="#efefef" stroke="#000" stroke-linecap="round" stroke-linejoin="round" stroke-width="2"/>
        </g>
      </g>
      <g id="Grupo_81395" data-name="Grupo 81395" transform="translate(612.126 1444.071)">
        <g id="Grupo_81393" data-name="Grupo 81393">
          <rect id="Rectángulo_34208" data-name="Rectángulo 34208" width="107.937" height="107.937" rx="11.5" fill="#546e7a" opacity="0.95" style="isolation: isolate"/>
          <path id="Trazado_114225" data-name="Trazado 114225" d="M610.274,1510.47h-17.6l17.6-17.6Z" transform="translate(-511.283 -1411.039)" fill="#a09f9f"/>
        </g>
        <g id="Grupo_81394" data-name="Grupo 81394" transform="translate(26.221 22.065)">
          <path id="Rectángulo_34209" data-name="Rectángulo 34209" d="M0,0H34.439a0,0,0,0,1,0,0V39.976a5.571,5.571,0,0,1-5.571,5.571H5.571A5.571,5.571,0,0,1,0,39.976V0A0,0,0,0,1,0,0Z" transform="matrix(0.852, 0.523, -0.523, 0.852, 23.819, 9.267)" fill="#a09f9f" stroke="#000" stroke-miterlimit="10" stroke-width="2"/>
          <path id="Trazado_114226" data-name="Trazado 114226" d="M567.962,1449.827l-13.611,22.185,42.965-4.175Z" transform="translate(-544.143 -1440.56)" fill="#efefef" stroke="#000" stroke-linecap="round" stroke-linejoin="round" stroke-width="2"/>
          <path id="Trazado_114227" data-name="Trazado 114227" d="M573.2,1461.739s4.063-17.243-1-19.607-10.207,16.639-10.207,16.639" transform="translate(-542.819 -1441.929)" fill="none" stroke="#000" stroke-linecap="round" stroke-linejoin="round" stroke-width="2"/>
          <line id="Línea_296" data-name="Línea 296" y2="16.182" transform="translate(53.173 27.277)" fill="#a09f9f" stroke="#000" stroke-linecap="round" stroke-miterlimit="10" stroke-width="2"/>
        </g>
      </g>
      <g id="Grupo_81398" data-name="Grupo 81398" transform="translate(732.443 1444.071)">
        <g id="Grupo_81396" data-name="Grupo 81396">
          <rect id="Rectángulo_34210" data-name="Rectángulo 34210" width="107.937" height="107.937" rx="11.5" fill="#546e7a" opacity="0.95" style="isolation: isolate"/>
          <path id="Trazado_114228" data-name="Trazado 114228" d="M712.825,1510.47h-17.6l17.6-17.6Z" transform="translate(-613.834 -1411.039)" fill="#a09f9f"/>
        </g>
        <g id="Grupo_81397" data-name="Grupo 81397" transform="translate(26.174 26.393)">
          <path id="Rectángulo_34211" data-name="Rectángulo 34211" d="M0,0H27.233a0,0,0,0,1,0,0V30.446a5.571,5.571,0,0,1-5.571,5.571H5.571A5.571,5.571,0,0,1,0,30.446V0A0,0,0,0,1,0,0Z" transform="matrix(0.852, 0.523, -0.523, 0.852, 18.835, 7.328)" fill="#a09f9f" stroke="#000" stroke-miterlimit="10" stroke-width="2"/>
          <path id="Trazado_114229" data-name="Trazado 114229" d="M665.8,1451.864l-10.763,17.543,33.975-3.3Z" transform="translate(-646.969 -1444.536)" fill="#efefef" stroke="#000" stroke-linecap="round" stroke-linejoin="round" stroke-width="2"/>
          <path id="Trazado_114230" data-name="Trazado 114230" d="M669.949,1461.284s3.212-13.635-.794-15.505-8.072,13.158-8.072,13.158" transform="translate(-645.922 -1445.618)" fill="none" stroke="#000" stroke-linecap="round" stroke-linejoin="round" stroke-width="2"/>
        </g>
        <path id="Trazado_114231" data-name="Trazado 114231" d="M686.492,1474.807l-10.879,17.036h21.573Z" transform="translate(-617.232 -1414.168)" fill="url(#linear-gradient)"/>
      </g>
    </g>
  </g>
</svg>
