<svg xmlns="http://www.w3.org/2000/svg" width="136" height="136" viewBox="0 0 136 136">
  <g id="_7" data-name="7" transform="translate(-792.843 -1233.945)">
    <circle id="Elipse_4927" data-name="Elipse 4927" cx="68" cy="68" r="68" transform="translate(792.843 1233.945)" fill="#ff9500" opacity="0.95" style="isolation: isolate"/>
    <circle id="Elipse_4928" data-name="Elipse 4928" cx="55" cy="55" r="55" transform="translate(805.843 1246.945)" fill="#efefef" opacity="0.95" style="isolation: isolate"/>
    <g id="Grupo_81575" data-name="Grupo 81575" opacity="0.95" style="isolation: isolate">
      <path id="Trazado_114303" data-name="Trazado 114303" d="M902.275,1288.332v-8.8a2.627,2.627,0,0,0-1.308-2.268l-13.621-7.862a1.652,1.652,0,1,0-1.651,2.861l11.625,6.713-36.476,21.059-36.476-21.059,36.475-21.059,18.635,10.758a1.653,1.653,0,1,0,1.653-2.862l-18.978-10.958a2.621,2.621,0,0,0-2.618,0l-38.814,22.409a2.626,2.626,0,0,0-1.309,2.268v8.8c-9.81,3.407-14.987,7.839-14.987,12.855,0,4.551,4.352,8.686,12.586,11.961q1.152.459,2.4.891v10.316a2.629,2.629,0,0,0,1.309,2.268l7.3,4.216a1.653,1.653,0,0,0,1.653-2.863l-6.958-4.017v-8.867a120.658,120.658,0,0,0,22.175,4l-2.678,2a1.653,1.653,0,1,0,1.98,2.647l5.875-4.394a2,2,0,0,0,0-3.207l-5.875-4.395a1.653,1.653,0,1,0-1.98,2.647l1.717,1.286a112.936,112.936,0,0,1-21.215-4.032v-29.8L859.19,1302.9V1322.9a1.653,1.653,0,0,0,3.306,0V1302.9l36.473-21.058v29.8a117.228,117.228,0,0,1-24.117,4.3,1.652,1.652,0,0,0,.134,3.3c.045,0,.091,0,.139,0a123.011,123.011,0,0,0,23.844-4.146v8.867L862.5,1345.015v-15.076a1.653,1.653,0,0,0-3.306,0v15.076L835.9,1331.57a1.653,1.653,0,0,0-1.653,2.863l25.286,14.6a2.623,2.623,0,0,0,2.618,0l38.813-22.408a2.627,2.627,0,0,0,1.309-2.268v-10.317c.831-.288,1.635-.586,2.4-.892,8.23-3.273,12.58-7.409,12.58-11.959,0-5.016-5.175-9.448-14.985-12.855Zm-84.043,21.745c-6.673-2.654-10.5-5.894-10.5-8.89,0-3.183,4.322-6.608,11.681-9.341v18.682c-.4-.148-.795-.3-1.18-.451Zm85.227,0q-.579.228-1.184.452v-18.68c7.358,2.733,11.681,6.157,11.681,9.339,0,2.994-3.826,6.234-10.5,8.889Zm0,0" fill="#255065"/>
    </g>
  </g>
</svg>
