<svg xmlns="http://www.w3.org/2000/svg" width="136" height="136" viewBox="0 0 136 136">
  <g id="_9" data-name="9" transform="translate(-1083.565 -1233.945)">
    <circle id="Elipse_4925" data-name="Elipse 4925" cx="68" cy="68" r="68" transform="translate(1083.565 1233.945)" fill="#ff9500" opacity="0.95" style="isolation: isolate"/>
    <circle id="Elipse_4926" data-name="Elipse 4926" cx="55" cy="55" r="55" transform="translate(1096.565 1246.945)" fill="#efefef" opacity="0.95" style="isolation: isolate"/>
    <g id="Grupo_81573" data-name="Grupo 81573" opacity="0.95" style="isolation: isolate">
      <path id="Trazado_114270" data-name="Trazado 114270" d="M1194.342,1256.819h-6.564a2.353,2.353,0,0,0-2.35,2.35v2.449h-1.092a1.324,1.324,0,1,0,0,2.648h1.092v1.467a2.352,2.352,0,0,0,2.35,2.35h1.957v1.091a1.325,1.325,0,0,0,2.649,0v-1.091h1.958a2.353,2.353,0,0,0,2.35-2.35v-6.564a2.354,2.354,0,0,0-2.35-2.35Zm-.3,8.616h-5.968v-5.968h5.968Zm0,0" fill="#255065"/>
      <path id="Trazado_114271" data-name="Trazado 114271" d="M1150.394,1264.266h2.387a1.324,1.324,0,0,0,0-2.648h-2.387a1.324,1.324,0,1,0,0,2.648Zm0,0" fill="#255065"/>
      <path id="Trazado_114272" data-name="Trazado 114272" d="M1158.88,1264.266h2.386a1.324,1.324,0,1,0,0-2.648h-2.386a1.324,1.324,0,1,0,0,2.648Zm0,0" fill="#255065"/>
      <path id="Trazado_114273" data-name="Trazado 114273" d="M1167.365,1264.266h2.387a1.324,1.324,0,1,0,0-2.648h-2.387a1.324,1.324,0,0,0,0,2.648Zm0,0" fill="#255065"/>
      <path id="Trazado_114274" data-name="Trazado 114274" d="M1178.237,1261.618h-2.386a1.324,1.324,0,1,0,0,2.648h2.386a1.324,1.324,0,0,0,0-2.648Zm0,0" fill="#255065"/>
      <path id="Trazado_114275" data-name="Trazado 114275" d="M1141.865,1264.266h2.386a1.324,1.324,0,0,0,0-2.648h-2.386a1.324,1.324,0,0,0,0,2.648Zm0,0" fill="#255065"/>
      <path id="Trazado_114276" data-name="Trazado 114276" d="M1133.378,1264.266h2.387a1.324,1.324,0,0,0,0-2.648h-2.387a1.324,1.324,0,1,0,0,2.648Zm0,0" fill="#255065"/>
      <path id="Trazado_114277" data-name="Trazado 114277" d="M1124.893,1264.266h2.386a1.324,1.324,0,0,0,0-2.648h-2.386a1.324,1.324,0,0,0,0,2.648Zm0,0" fill="#255065"/>
      <path id="Trazado_114278" data-name="Trazado 114278" d="M1118.794,1261.618H1117.7v-2.449a2.354,2.354,0,0,0-2.351-2.35h-6.563a2.354,2.354,0,0,0-2.351,2.35v6.564a2.354,2.354,0,0,0,2.351,2.35h1.466v1.091a1.325,1.325,0,0,0,2.649,0v-1.091h2.448a2.354,2.354,0,0,0,2.351-2.35v-1.467h1.09a1.324,1.324,0,1,0,0-2.648Zm-3.739,3.817h-5.969v-5.968h5.969Zm0,0" fill="#255065"/>
      <path id="Trazado_114279" data-name="Trazado 114279" d="M1110.255,1303.161a1.325,1.325,0,0,0,2.649,0v-2.386a1.325,1.325,0,1,0-2.649,0Zm0,0" fill="#255065"/>
      <path id="Trazado_114280" data-name="Trazado 114280" d="M1110.255,1311.646a1.325,1.325,0,0,0,2.649,0v-2.386a1.325,1.325,0,0,0-2.649,0Zm0,0" fill="#255065"/>
      <path id="Trazado_114281" data-name="Trazado 114281" d="M1110.255,1320.132a1.325,1.325,0,0,0,2.649,0v-2.387a1.325,1.325,0,0,0-2.649,0Zm0,0" fill="#255065"/>
      <path id="Trazado_114282" data-name="Trazado 114282" d="M1110.255,1328.617a1.325,1.325,0,0,0,2.649,0v-2.386a1.325,1.325,0,0,0-2.649,0Zm0,0" fill="#255065"/>
      <path id="Trazado_114283" data-name="Trazado 114283" d="M1110.255,1294.631a1.325,1.325,0,0,0,2.649,0v-2.386a1.325,1.325,0,0,0-2.649,0Zm0,0" fill="#255065"/>
      <path id="Trazado_114284" data-name="Trazado 114284" d="M1110.255,1286.146a1.325,1.325,0,0,0,2.649,0v-2.387a1.325,1.325,0,0,0-2.649,0Zm0,0" fill="#255065"/>
      <path id="Trazado_114285" data-name="Trazado 114285" d="M1111.58,1278.984a1.324,1.324,0,0,0,1.324-1.324v-2.386a1.325,1.325,0,0,0-2.649,0v2.386a1.325,1.325,0,0,0,1.325,1.324Zm0,0" fill="#255065"/>
      <path id="Trazado_114286" data-name="Trazado 114286" d="M1189.735,1303.161a1.325,1.325,0,0,0,2.649,0v-2.386a1.325,1.325,0,1,0-2.649,0Zm0,0" fill="#255065"/>
      <path id="Trazado_114287" data-name="Trazado 114287" d="M1189.735,1311.646a1.325,1.325,0,0,0,2.649,0v-2.386a1.325,1.325,0,0,0-2.649,0Zm0,0" fill="#255065"/>
      <path id="Trazado_114288" data-name="Trazado 114288" d="M1189.735,1320.132a1.325,1.325,0,0,0,2.649,0v-2.387a1.325,1.325,0,0,0-2.649,0Zm0,0" fill="#255065"/>
      <path id="Trazado_114289" data-name="Trazado 114289" d="M1189.735,1328.617a1.325,1.325,0,0,0,2.649,0v-2.386a1.325,1.325,0,0,0-2.649,0Zm0,0" fill="#255065"/>
      <path id="Trazado_114290" data-name="Trazado 114290" d="M1189.735,1294.631a1.325,1.325,0,0,0,2.649,0v-2.386a1.325,1.325,0,0,0-2.649,0Zm0,0" fill="#255065"/>
      <path id="Trazado_114291" data-name="Trazado 114291" d="M1189.735,1286.146a1.325,1.325,0,0,0,2.649,0v-2.387a1.325,1.325,0,0,0-2.649,0Zm0,0" fill="#255065"/>
      <path id="Trazado_114292" data-name="Trazado 114292" d="M1191.06,1278.984a1.324,1.324,0,0,0,1.324-1.324v-2.386a1.325,1.325,0,0,0-2.649,0v2.386a1.325,1.325,0,0,0,1.325,1.324Zm0,0" fill="#255065"/>
      <path id="Trazado_114293" data-name="Trazado 114293" d="M1194.342,1335.808h-1.958v-1.092a1.325,1.325,0,0,0-2.649,0v1.092h-1.957a2.352,2.352,0,0,0-2.35,2.35v1.466h-1.092a1.324,1.324,0,0,0,0,2.649h1.092v2.449a2.353,2.353,0,0,0,2.35,2.35h6.564a2.354,2.354,0,0,0,2.35-2.35v-6.564a2.354,2.354,0,0,0-2.35-2.35Zm-.3,8.616h-5.968v-5.968h5.968Zm0,0" fill="#255065"/>
      <path id="Trazado_114294" data-name="Trazado 114294" d="M1152.736,1339.625h-2.386a1.324,1.324,0,1,0,0,2.648h2.386a1.324,1.324,0,1,0,0-2.648Zm0,0" fill="#255065"/>
      <path id="Trazado_114295" data-name="Trazado 114295" d="M1144.251,1339.625h-2.386a1.324,1.324,0,0,0,0,2.648h2.386a1.324,1.324,0,0,0,0-2.648Zm0,0" fill="#255065"/>
      <path id="Trazado_114296" data-name="Trazado 114296" d="M1135.765,1339.625h-2.387a1.324,1.324,0,1,0,0,2.648h2.387a1.324,1.324,0,1,0,0-2.648Zm0,0" fill="#255065"/>
      <path id="Trazado_114297" data-name="Trazado 114297" d="M1127.279,1339.625h-2.386a1.324,1.324,0,1,0,0,2.648h2.386a1.324,1.324,0,0,0,0-2.648Zm0,0" fill="#255065"/>
      <path id="Trazado_114298" data-name="Trazado 114298" d="M1118.794,1339.625H1117.7v-1.467a2.354,2.354,0,0,0-2.351-2.35H1112.9v-1.091a1.325,1.325,0,1,0-2.649,0v1.091h-1.466a2.354,2.354,0,0,0-2.351,2.35v6.564a2.353,2.353,0,0,0,2.351,2.35h6.563a2.353,2.353,0,0,0,2.351-2.35v-2.449h1.09a1.324,1.324,0,1,0,0-2.648Zm-3.739,4.8h-5.969v-5.968h5.969Zm0,0" fill="#255065"/>
      <path id="Trazado_114299" data-name="Trazado 114299" d="M1161.266,1339.625h-2.386a1.324,1.324,0,0,0,0,2.648h2.386a1.324,1.324,0,1,0,0-2.648Zm0,0" fill="#255065"/>
      <path id="Trazado_114300" data-name="Trazado 114300" d="M1169.751,1339.625h-2.386a1.324,1.324,0,0,0,0,2.648h2.386a1.324,1.324,0,1,0,0-2.648Zm0,0" fill="#255065"/>
      <path id="Trazado_114301" data-name="Trazado 114301" d="M1178.237,1339.625h-2.386a1.324,1.324,0,1,0,0,2.648h2.386a1.324,1.324,0,0,0,0-2.648Zm0,0" fill="#255065"/>
      <path id="Trazado_114302" data-name="Trazado 114302" d="M1167.6,1302.462l7.857-14.971a1.726,1.726,0,0,0-.918-2.414l-11.093-4.183a1.324,1.324,0,1,0-.933,2.478l8.229,3.1-19.179,7.233-19.178-7.233,19.178-7.232,5.637,2.126a1.324,1.324,0,0,0,.934-2.478l-5.963-2.249a1.735,1.735,0,0,0-1.217,0l-22.366,8.436a1.724,1.724,0,0,0-.918,2.414l6.141,11.7a1.324,1.324,0,1,0,2.344-1.23l-4.733-9.019,18.816,7.1V1324.8l-11.459-21.835a1.324,1.324,0,1,0-2.344,1.23l13.6,25.918a1.723,1.723,0,0,0,3.053,0l11.874-22.624a1.324,1.324,0,0,0-2.345-1.23l-9.731,18.542v-28.758l18.817-7.1-6.449,12.289a1.324,1.324,0,0,0,2.345,1.23Zm0,0" fill="#255065"/>
    </g>
  </g>
</svg>
