<svg xmlns="http://www.w3.org/2000/svg" width="122.198" height="135.668" viewBox="0 0 122.198 135.668">
  <g id="a1" transform="translate(-955.029 -419.164)">
    <path id="Trazado_114111" data-name="Trazado 114111" d="M1010.714,453.919c-31.923,1.937-56.736,21.067-55.422,42.729s28.257,37.653,60.18,35.716l.071,0a5.05,5.05,0,0,0,4.563-6.278,19.928,19.928,0,0,1,17.494-24.77,19.906,19.906,0,0,1,18.219,8.545,5.071,5.071,0,0,0,8.17.314c4.8-6.178,7.349-13.21,6.905-20.535C1069.58,467.974,1042.636,451.983,1010.714,453.919Z" fill="#5a5a63"/>
    <g id="Grupo_81286" data-name="Grupo 81286">
      <path id="Trazado_114112" data-name="Trazado 114112" d="M1010.5,450.414c-31.922,1.936-56.736,21.066-55.422,42.728s28.258,37.653,60.18,35.717l.072-.005a5.05,5.05,0,0,0,4.562-6.278,19.923,19.923,0,0,1,35.714-16.225,5.07,5.07,0,0,0,8.17.314c4.8-6.177,7.349-13.21,6.9-20.535C1069.367,464.468,1042.424,448.477,1010.5,450.414Z" fill="#8c8c8d"/>
      <path id="Trazado_114113" data-name="Trazado 114113" d="M999.227,511.823a6.981,6.981,0,1,1-7.391-6.545A6.98,6.98,0,0,1,999.227,511.823Z" fill="#ff9500" opacity="0.95" style="isolation: isolate"/>
      <path id="Trazado_114114" data-name="Trazado 114114" d="M980.21,498.611a6.98,6.98,0,1,1-7.39-6.545A6.98,6.98,0,0,1,980.21,498.611Z" fill="#ff9500" opacity="0.95" style="isolation: isolate"/>
      <path id="Trazado_114115" data-name="Trazado 114115" d="M985.8,475.5a6.981,6.981,0,1,1-7.391-6.545A6.98,6.98,0,0,1,985.8,475.5Z" fill="#ff9500" opacity="0.95" style="isolation: isolate"/>
      <path id="Trazado_114116" data-name="Trazado 114116" d="M1009.369,463.014a6.98,6.98,0,1,1-7.39-6.545A6.981,6.981,0,0,1,1009.369,463.014Z" fill="#ff9500" opacity="0.95" style="isolation: isolate"/>
      <path id="Trazado_114117" data-name="Trazado 114117" d="M1035.915,463.356a6.98,6.98,0,1,1-7.39-6.545A6.98,6.98,0,0,1,1035.915,463.356Z" fill="#ff9500" opacity="0.95" style="isolation: isolate"/>
      <path id="Trazado_114118" data-name="Trazado 114118" d="M1058.321,475.983a6.98,6.98,0,1,1-7.39-6.545A6.981,6.981,0,0,1,1058.321,475.983Z" fill="#ff9500" opacity="0.95" style="isolation: isolate"/>
    </g>
    <path id="Trazado_114119" data-name="Trazado 114119" d="M1041.57,454.549,1035,468.3a2.1,2.1,0,0,0-2.05,1.3l-.018.046a2.1,2.1,0,0,0,1.154,2.741l.617.251c-.121-.04-.748-.113-2.069,1.811h0l0,0c-.079.117-.162.242-.247.373l-.026.039c-.079.123-.16.254-.244.391l-.05.082q-.117.193-.24.407l-.074.127q-.116.2-.237.423l-.1.177c-.077.142-.155.288-.235.44l-.119.229c-.077.148-.154.3-.233.457-.047.093-.095.19-.143.286-.076.154-.152.31-.231.473-.054.112-.109.228-.164.344-.077.162-.154.326-.233.5l-.182.4c-.077.17-.155.341-.235.52-.067.151-.137.311-.206.468-.077.175-.153.348-.231.531s-.154.36-.231.542-.153.361-.232.55-.167.408-.252.614c-.076.187-.152.371-.23.565-.092.227-.186.466-.28.7-.076.191-.15.377-.227.575-.1.267-.212.549-.32.828-.069.181-.137.354-.207.541-.127.334-.258.686-.389,1.037-.055.149-.109.289-.164.44-.189.511-.381,1.037-.577,1.584-.527,1.465-1.142,3.19-1.82,5.1l-.237.666c-.1.29-.209.593-.315.891-.088.249-.174.491-.263.746-.139.392-.282.8-.425,1.2l-.191.543c-.142.4-.286.813-.431,1.225-.074.211-.147.416-.222.629l-.414,1.18-.257.733c-.161.458-.324.925-.488,1.393-.062.176-.122.349-.184.527-.167.477-.337.962-.507,1.449-.073.208-.144.413-.218.623l-.478,1.373-.245.7c-.17.488-.342.982-.514,1.478-.074.213-.148.424-.222.638-.17.487-.34.979-.511,1.472-.086.246-.171.491-.256.738q-.23.663-.462,1.333l-.328.948q-.2.576-.4,1.154c-.127.365-.253.73-.379,1.1q-.213.617-.427,1.237c-.074.216-.148.431-.223.647h0c-1.16,3.368-2.328,6.786-3.478,10.172q1.52-.039,3.057-.13l.072-.005a5.05,5.05,0,0,0,4.562-6.278,19.93,19.93,0,0,1,13.762-24.062c.931-2.015,1.762-3.823,2.458-5.347,7.4-16.219,5.565-17.673,5.333-17.785l.616.251a2.1,2.1,0,0,0,2.741-1.155l.019-.047a2.1,2.1,0,0,0-.961-2.638l4.924-14.157A62.159,62.159,0,0,0,1041.57,454.549Zm-6.846,18.1h0l.174.07Z" fill="#2b2b32" opacity="0.68" style="mix-blend-mode: multiply;isolation: isolate"/>
    <path id="Trazado_114120" data-name="Trazado 114120" d="M984.593,474.435A2.919,2.919,0,1,1,981.5,471.7,2.919,2.919,0,0,1,984.593,474.435Z" fill="#fff" opacity="0.42"/>
    <path id="Trazado_114121" data-name="Trazado 114121" d="M1008.176,462.2a2.919,2.919,0,1,1-3.091-2.737A2.921,2.921,0,0,1,1008.176,462.2Z" fill="#fff" opacity="0.42"/>
    <path id="Trazado_114122" data-name="Trazado 114122" d="M1033.146,461.572a2.919,2.919,0,1,1-3.091-2.737A2.919,2.919,0,0,1,1033.146,461.572Z" fill="#fff" opacity="0.42"/>
    <path id="Trazado_114123" data-name="Trazado 114123" d="M977.267,496.551a2.919,2.919,0,1,1-3.091-2.737A2.92,2.92,0,0,1,977.267,496.551Z" fill="#fff" opacity="0.42"/>
    <path id="Trazado_114124" data-name="Trazado 114124" d="M997.96,509.8a2.919,2.919,0,1,1-3.091-2.737A2.92,2.92,0,0,1,997.96,509.8Z" fill="#fff" opacity="0.42"/>
    <g id="Grupo_81287" data-name="Grupo 81287">
      <path id="Trazado_114125" data-name="Trazado 114125" d="M1067.093,450.4s9.524-5.2,10.134-13.25a20.946,20.946,0,0,0-2.1-8.657l-1.3,4.9s-.717-7.7-6.212-11.415-4.144-2.675-4.144-2.675,4.615,6.125-.508,16.281,1.342,13.678,1.342,13.678Z" fill="#ff9500" opacity="0.95" style="isolation: isolate"/>
      <path id="Trazado_114126" data-name="Trazado 114126" d="M1066.5,447.1s-1.722-8.833,2.215-13.58c-5.118,6.489-6.175,11.7-4.89,15.913Z" fill="#b77e00"/>
      <path id="Trazado_114127" data-name="Trazado 114127" d="M1061.9,448.843a3.612,3.612,0,0,1,4.6-1.746l.032.013.031.013a3.612,3.612,0,0,1,2.073,4.463l-6.262,19.239-4.716-1.92-4.716-1.92Z" fill="#fff"/>
      <path id="Trazado_114128" data-name="Trazado 114128" d="M1052.217,471.285l7.978,3.248a2.1,2.1,0,0,0,2.741-1.155l.019-.047a2.1,2.1,0,0,0-1.155-2.741l-7.978-3.248a2.1,2.1,0,0,0-2.741,1.155l-.019.046A2.1,2.1,0,0,0,1052.217,471.285Z" fill="#cdcdcd"/>
      <path id="Trazado_114129" data-name="Trazado 114129" d="M1052.856,471.545l3.35,1.363,3.349,1.364s2.541.6-5.31,17.795c-5.835,12.779-20.845,44.83-29.494,61.954a1.46,1.46,0,0,1-2.695-1.1c5.772-18.3,17.42-51.715,22.17-64.936C1050.618,470.2,1052.856,471.545,1052.856,471.545Z" fill="#2b2b32"/>
      <path id="Trazado_114130" data-name="Trazado 114130" d="M1034.993,533.087c-3.738,7.8-7.347,15.2-10.242,20.934a1.46,1.46,0,0,1-2.695-1.1c1.933-6.124,4.524-13.946,7.294-22.135Z" fill="#fff"/>
      <path id="Trazado_114131" data-name="Trazado 114131" d="M1033.812,517.717h0c12.3-15.23,16.932-44.244,16.953-44.371-1.367,1.99-3.474,6.114-6.539,14.642C1041.905,494.448,1037.937,505.732,1033.812,517.717Z" fill="#fff" opacity="0.75" style="mix-blend-mode: overlay;isolation: isolate"/>
    </g>
  </g>
</svg>
