<svg xmlns="http://www.w3.org/2000/svg" width="52.59" height="94.471" viewBox="0 0 52.59 94.471">
  <g id="a2" transform="translate(-1124.234 -311.152)">
    <path id="Trazado_114101" data-name="Trazado 114101" d="M1169.706,319.237a33.571,33.571,0,0,0-12.606-7.19c-.031-.01-.1-.03-.207-.058a24.608,24.608,0,0,0-12.727,0c-.1.028-.176.048-.207.058a33.569,33.569,0,0,0-12.606,7.19c-10.526,10.009-8.816,28.176,1.436,37.761,2.875,2.689,4.138,6.16,5.019,9.987.265,1.152,1.79,13.174,1.258,13.174h22.926c-.532,0,.994-12.022,1.259-13.174.881-3.827,2.144-7.3,5.019-9.987C1178.522,347.413,1180.232,329.246,1169.706,319.237Z" fill="#ff9500" opacity="0.95" style="isolation: isolate"/>
    <path id="Trazado_114102" data-name="Trazado 114102" d="M1146.407,366.985c-.88-3.827-2.143-7.3-5.019-9.987-10.252-9.585-11.962-27.752-1.435-37.761a33.554,33.554,0,0,1,12.606-7.19c.03-.01.1-.03.206-.058.682-.183,1.372-.325,2.064-.447a24.586,24.586,0,0,0-10.663.447c-.1.028-.176.048-.207.058a33.569,33.569,0,0,0-12.606,7.19c-10.526,10.009-8.816,28.176,1.436,37.761,2.875,2.689,4.138,6.16,5.019,9.987.265,1.152,1.79,13.174,1.258,13.174h8.6C1148.2,380.159,1146.672,368.137,1146.407,366.985Z" fill="#fff6e7" opacity="0.52" style="mix-blend-mode: overlay;isolation: isolate"/>
    <path id="Trazado_114103" data-name="Trazado 114103" d="M1150.529,380.159V352.123l4.935-2.844a2.108,2.108,0,0,0-.514-3.864l-8.98-2.369a1.681,1.681,0,0,1-.261-3.158l4.82-2.169V328.2" fill="none" stroke="#fefefe" stroke-linecap="round" stroke-miterlimit="10" stroke-width="2.239"/>
    <path id="Trazado_114104" data-name="Trazado 114104" d="M1164.273,384.017a1.543,1.543,0,0,1-1.543,1.543h-25.207a1.543,1.543,0,0,1-1.543-1.543h0a1.543,1.543,0,0,1,1.543-1.543h25.207a1.543,1.543,0,0,1,1.543,1.543Z" fill="#2b2b32"/>
    <path id="Trazado_114105" data-name="Trazado 114105" d="M1164.273,388.647a1.543,1.543,0,0,1-1.543,1.543h-25.207a1.543,1.543,0,0,1-1.543-1.543h0a1.543,1.543,0,0,1,1.543-1.543h25.207a1.543,1.543,0,0,1,1.543,1.543Z" fill="#2b2b32"/>
    <path id="Trazado_114106" data-name="Trazado 114106" d="M1164.273,393.277a1.543,1.543,0,0,1-1.543,1.543h-25.207a1.543,1.543,0,0,1-1.543-1.543h0a1.543,1.543,0,0,1,1.543-1.544h25.207a1.543,1.543,0,0,1,1.543,1.544Z" fill="#2b2b32"/>
    <path id="Trazado_114107" data-name="Trazado 114107" d="M1150.127,405.623a9,9,0,0,0,9-9h-18.005A9,9,0,0,0,1150.127,405.623Z" fill="#2b2b32"/>
  </g>
</svg>
