<svg xmlns="http://www.w3.org/2000/svg" width="110.884" height="102.898" viewBox="0 0 110.884 102.898">
  <g id="a3" transform="translate(-1245.3 -475.827)">
    <path id="Trazado_114132" data-name="Trazado 114132" d="M1272.057,482l2.18,4.417,4.875.708-3.528,3.438.833,4.855-4.36-2.292-4.36,2.292.833-4.855L1265,487.125l4.875-.708Z" fill="#9f9f9f"/>
    <path id="Trazado_114133" data-name="Trazado 114133" d="M1334.824,475.827l3.044,6.168,6.807.989-4.926,4.8,1.163,6.78-6.089-3.2-6.089,3.2,1.163-6.78-4.926-4.8,6.807-.989Z" fill="#666"/>
    <path id="Trazado_114134" data-name="Trazado 114134" d="M1315.775,568.266l1.7,3.443,3.8.552-2.75,2.68.649,3.784-3.4-1.787-3.4,1.787.649-3.784-2.75-2.68,3.8-.552Z" fill="#9f9f9f"/>
    <path id="Trazado_114135" data-name="Trazado 114135" d="M1255.151,544.943l3.044,6.168,6.807.989-4.926,4.8,1.163,6.78-6.089-3.2-6.089,3.2,1.163-6.78-4.926-4.8,6.807-.989Z" fill="#666"/>
    <g id="Grupo_81289" data-name="Grupo 81289">
      <circle id="Elipse_4863" data-name="Elipse 4863" cx="33.948" cy="33.948" r="33.948" transform="translate(1256.724 509.129) rotate(-21.851)" fill="#ff9500" opacity="0.95" style="isolation: isolate"/>
      <path id="Trazado_114136" data-name="Trazado 114136" d="M1291.744,560.7a33.926,33.926,0,0,0,32.649-8.227,33.944,33.944,0,0,1-32.282-57.269,33.947,33.947,0,0,0-.367,65.5Z" fill="#b77e00" opacity="0.67" style="mix-blend-mode: multiply;isolation: isolate"/>
      <path id="Trazado_114137" data-name="Trazado 114137" d="M1309.991,495.3a34.19,34.19,0,0,0-5.079-1.012,37.05,37.05,0,0,0,27.554,46.126,33.969,33.969,0,0,0-22.475-45.114Z" fill="#fff6e7" opacity="0.52" style="mix-blend-mode: overlay;isolation: isolate"/>
      <path id="Trazado_114138" data-name="Trazado 114138" d="M1267.037,525.21c-13.171-5.131-21.362-9.773-20.674-12.24,1.145-4.1,26.426-.634,56.467,7.748s53.466,18.5,52.321,22.607c-.686,2.459-10.038,2.2-23.888-.208" fill="none" stroke="#666" stroke-miterlimit="10" stroke-width="2"/>
    </g>
  </g>
</svg>
