<svg xmlns="http://www.w3.org/2000/svg" xmlns:xlink="http://www.w3.org/1999/xlink" width="556" height="416.194" viewBox="0 0 556 416.194">
  <defs>
    <clipPath id="clip-path">
      <rect id="Rectángulo_34266" data-name="Rectángulo 34266" width="556" height="416.194" transform="translate(810 120.806)" fill="none" stroke="#707070" stroke-width="3"/>
    </clipPath>
  </defs>
  <g id="banner-princiapal" transform="translate(-810 -120.806)" clip-path="url(#clip-path)">
    <g id="banner-princiapal-2" data-name="banner-princiapal" transform="translate(-67.785 -206.576)">
      <g id="Grupo_81266" data-name="Grupo 81266">
        <path id="Trazado_114030" data-name="Trazado 114030" d="M1087.095,617.232c-4.206-.018-8.417-.186-12.631-.532-46.195-3.787-99.71-25.845-122.711-66.006-20.108-35.111-28-80.568-18.848-119.725,8.607-36.809,35.291-66.626,72.656-77.947,42.021-12.733,88.464,2.738,129.813-14.651,60.183-25.309,135.826-5.21,178,42.944,37.4,42.694,46.447,111.536,34.708,164.876-5.933,26.959-21.539,52.922-46.381,66.495-19.766,10.8-43.658,12.927-66.26,10.113-18.174-2.263-34.9-8.19-52.387-13.068-14.013-3.91-25.511-1.874-39.854.964C1124.745,614.347,1105.975,617.31,1087.095,617.232Z" fill="#0ca4ca" opacity="0.95" style="isolation: isolate"/>
        <path id="Trazado_114031" data-name="Trazado 114031" d="M1097.408,591.472c-3.4-.014-6.811-.15-10.221-.43-37.38-3.064-80.683-20.913-99.295-53.411-16.271-28.41-22.661-65.193-15.251-96.878,6.964-29.785,28.556-53.912,58.791-63.073,34-10.3,71.583,2.215,105.042-11.855,48.7-20.48,109.907-4.216,144.036,34.75,30.26,34.546,37.584,90.252,28.085,133.413-4.8,21.814-17.429,42.823-37.53,53.806-15.994,8.738-35.327,10.461-53.617,8.183-14.7-1.831-28.243-6.627-42.389-10.574-11.34-3.164-20.644-1.517-32.249.78C1127.873,589.138,1112.685,591.536,1097.408,591.472Z" fill="rgba(0,0,0,0)" stroke="#fff" stroke-miterlimit="10" stroke-width="1.946" stroke-dasharray="3.851 3.851"/>
      </g>
      <g id="Grupo_81269" data-name="Grupo 81269">
        <ellipse id="Elipse_4859" data-name="Elipse 4859" cx="18.191" cy="1.383" rx="18.191" ry="1.383" transform="translate(1297.583 732.775)" fill="#505059" opacity="0.87" style="mix-blend-mode: multiply;isolation: isolate"/>
        <g id="Grupo_81268" data-name="Grupo 81268">
          <path id="Trazado_114032" data-name="Trazado 114032" d="M1318.083,681.851s-15.575-10.582-5.571-25.963,7.5-20.727,4-25.057c8.5,9.676,6.64,20.7,1.569,27.693S1312.209,675.035,1318.083,681.851Z" fill="#b1b1b1"/>
          <g id="Grupo_81267" data-name="Grupo 81267">
            <path id="Trazado_114033" data-name="Trazado 114033" d="M1330.792,694.981h-30.035L1303.689,733h24.172Z" fill="#fefefe"/>
            <rect id="Rectángulo_34163" data-name="Rectángulo 34163" width="36.383" height="4.459" transform="translate(1297.583 693.036)" fill="#8c8c8d"/>
            <path id="Trazado_114034" data-name="Trazado 114034" d="M1326.821,689.025h-22.093a3.971,3.971,0,0,0-3.971,3.971v.04h30.035V693A3.971,3.971,0,0,0,1326.821,689.025Z" fill="#5a5a63"/>
            <path id="Trazado_114035" data-name="Trazado 114035" d="M1329.122,716.643l.71-9.21h-28.115l.71,9.21Z" fill="#ff9500" opacity="0.95" style="isolation: isolate"/>
          </g>
          <path id="Trazado_114036" data-name="Trazado 114036" d="M1330.792,693.036V693a3.971,3.971,0,0,0-3.971-3.971H1315.88a3.97,3.97,0,0,1,3.97,3.971v.04h3.175v4.459h-3.368L1316.919,733h10.941l2.738-35.508h3.368v-4.459Z" fill="#b1b1b1" style="mix-blend-mode: multiply;isolation: isolate"/>
        </g>
      </g>
      <g id="Grupo_81275" data-name="Grupo 81275">
        <path id="Trazado_114037" data-name="Trazado 114037" d="M1169.547,456.6s6.3-19.74-2.9-25.472c-5.845-3-9.039.738-9.039.738s-2.749-13.957-21.69-9.347c-12.269,2.986-16.14-3.338-16.14-3.338s-.115,17.5,8.335,22.7c6.117,5.246,3.771,19.425,3.771,19.425Z" fill="#2b2b32"/>
        <path id="Trazado_114038" data-name="Trazado 114038" d="M1225.348,714.552s34.1,1.024,43.618,9.81c10.008,9.239,20.508,23.666-22.578,23.388s-81.282-12.136-117.419-8.373-65.792,10.252-74.431,8.813,52.936-30.937,52.936-30.937l114.32,4.2Z" fill="#505059" opacity="0.87" style="mix-blend-mode: multiply;isolation: isolate"/>
        <path id="Trazado_114039" data-name="Trazado 114039" d="M1193.453,637.848l-42.99-4.319-42.989,4.319s-2.553,20.312-10.855,31.148l53.844,19.337L1204.308,669C1196.006,658.16,1193.453,637.848,1193.453,637.848Z" fill="#b77e00"/>
        <path id="Trazado_114040" data-name="Trazado 114040" d="M1148.765,687.723l1.7.61,1.7-.609c9.906-22.79,7.536-48.359,6.949-53.326l-8.645-.869-11.063,1.112C1139.18,640.1,1138.81,665.08,1148.765,687.723Z" fill="#b77e00" style="mix-blend-mode: multiply;isolation: isolate"/>
        <path id="Trazado_114041" data-name="Trazado 114041" d="M1107.23,639.505s45.236,19.952,88.922,11.281a101.769,101.769,0,0,1-2.7-12.938l-42.99-4.319L1115.931,637l-8.7,2.507Z" fill="#9a5331" style="mix-blend-mode: multiply;isolation: isolate"/>
        <path id="Trazado_114042" data-name="Trazado 114042" d="M1128.111,441.875c6.117,5.246,3.771,19.425,3.771,19.425l8-1c8.219-7.314,17.5-16.575,16.149-20.063-2.361-6.114-9.179-12.215-21.753-12.913s-14.505-8.149-14.505-8.149S1119.661,436.672,1128.111,441.875Z" fill="#505059"/>
        <path id="Trazado_114043" data-name="Trazado 114043" d="M1148.9,491.41l-35.54,12.955-5.889,133.483s12.563,5.889,42.989,5.889V493.482Z" fill="#fff"/>
        <path id="Trazado_114044" data-name="Trazado 114044" d="M1152.024,491.41l35.54,12.955,5.889,133.483s-12.563,5.889-42.99,5.889V493.482Z" fill="#fff"/>
        <path id="Trazado_114045" data-name="Trazado 114045" d="M1113.363,504.365l-.165.059a38.517,38.517,0,0,0-22.785,21.915l-38.148,92.332,32.439,3.865,27.46-67.3Z" fill="#ff7f6e"/>
        <path id="Trazado_114046" data-name="Trazado 114046" d="M1187.564,504.365l.165.059a38.517,38.517,0,0,1,22.785,21.915l38.148,92.332-32.439,3.865-27.461-67.3Z" fill="#ff7f6e"/>
        <path id="Trazado_114047" data-name="Trazado 114047" d="M1225.327,562.192l-14.813-35.853a38.517,38.517,0,0,0-22.785-21.915l-.165-.059,1.2,50.868,7.78,19.067C1206.926,565.6,1217.346,562.777,1225.327,562.192Z" fill="#e9e9e9"/>
        <path id="Trazado_114048" data-name="Trazado 114048" d="M1075.6,562.192l14.813-35.853a38.517,38.517,0,0,1,22.785-21.915l.165-.059-1.2,50.868-7.779,19.067C1094,565.6,1083.581,562.777,1075.6,562.192Z" fill="#e9e9e9"/>
        <path id="Trazado_114049" data-name="Trazado 114049" d="M1189.885,556.992a39.46,39.46,0,0,1-2.321-3.875l1.2,2.116s-13.521,75.05-49.668,88.207h0c3.475.186,7.253.3,11.369.3,30.427,0,42.99-5.889,42.99-5.889Z" fill="#d4d4d4"/>
        <path id="Trazado_114050" data-name="Trazado 114050" d="M1096.619,547.158c9.168-25.715,9.677-25.519,29.7-30.23s16.085-23.149,16.085-23.149l-18.667,6.8-2.888,1.053-7.486,2.729-.165.059a38.517,38.517,0,0,0-22.785,21.915l-36.568,88.506C1069.288,603.477,1088.811,569.059,1096.619,547.158Z" fill="#fff6e7" opacity="0.52" style="mix-blend-mode: overlay;isolation: isolate"/>
        <path id="Trazado_114051" data-name="Trazado 114051" d="M1204.308,547.158c-9.168-25.715-9.678-25.519-29.7-30.23s-16.086-23.149-16.086-23.149l18.668,6.8,2.887,1.053,7.487,2.729.165.059a38.517,38.517,0,0,1,22.785,21.915l36.567,88.506C1231.638,603.477,1212.115,569.059,1204.308,547.158Z" fill="#552624" opacity="0.28" style="mix-blend-mode: multiply;isolation: isolate"/>
        <path id="Trazado_114052" data-name="Trazado 114052" d="M1150.559,507.877h-.192a9.512,9.512,0,0,1-9.512-9.512V475.654h19.217v22.711A9.512,9.512,0,0,1,1150.559,507.877Z" fill="#ff7f6e"/>
        <path id="Trazado_114053" data-name="Trazado 114053" d="M1159.918,493.171c.054,0,.1-.006.154-.007v-17.51H1151.1l-10.246,3.7S1144.668,493.171,1159.918,493.171Z" fill="#552624"/>
        <path id="Trazado_114054" data-name="Trazado 114054" d="M1172.816,462.009a6.171,6.171,0,1,1-6.171-6.17A6.171,6.171,0,0,1,1172.816,462.009Z" fill="#e34e4e"/>
        <path id="Trazado_114055" data-name="Trazado 114055" d="M1167.847,468.059a79.957,79.957,0,0,0,1.7-11.464,6.1,6.1,0,0,0-2.9-.756,6.171,6.171,0,0,0,0,12.341A6.256,6.256,0,0,0,1167.847,468.059Z" fill="#933b3b"/>
        <path id="Trazado_114056" data-name="Trazado 114056" d="M1128.111,462.009a6.171,6.171,0,1,0,6.17-6.17A6.17,6.17,0,0,0,1128.111,462.009Z" fill="#e34e4e"/>
        <path id="Trazado_114057" data-name="Trazado 114057" d="M1133.08,468.059a79.957,79.957,0,0,1-1.7-11.464,6.1,6.1,0,0,1,2.9-.756,6.171,6.171,0,1,1,0,12.341A6.254,6.254,0,0,1,1133.08,468.059Z" fill="#933b3b"/>
        <path id="Trazado_114058" data-name="Trazado 114058" d="M1161.324,440.428H1139.6l-5.375,11.745.9,11.623c.483,6.2,4.49,16.912,10.128,19.544a11.041,11.041,0,0,0,10.407,0c5.637-2.632,9.645-13.341,10.127-19.544l.905-11.623Z" fill="#ff7f6e"/>
        <path id="Trazado_114059" data-name="Trazado 114059" d="M1156.034,455.171a16.839,16.839,0,0,0,7.768,0" fill="rgba(0,0,0,0)" stroke="#2b2b32" stroke-linecap="round" stroke-miterlimit="10" stroke-width="1.336"/>
        <path id="Trazado_114060" data-name="Trazado 114060" d="M1154.857,448.492s5.322-.885,8.522.959" fill="rgba(0,0,0,0)" stroke="#2b2b32" stroke-linecap="round" stroke-miterlimit="10" stroke-width="2.672"/>
        <path id="Trazado_114061" data-name="Trazado 114061" d="M1144.893,455.171a16.839,16.839,0,0,1-7.768,0" fill="rgba(0,0,0,0)" stroke="#2b2b32" stroke-linecap="round" stroke-miterlimit="10" stroke-width="1.336"/>
        <path id="Trazado_114062" data-name="Trazado 114062" d="M1146.07,448.492s-5.322-.885-8.522.959" fill="rgba(0,0,0,0)" stroke="#2b2b32" stroke-linecap="round" stroke-miterlimit="10" stroke-width="2.672"/>
        <path id="Trazado_114063" data-name="Trazado 114063" d="M1141.809,465.3c-.71-11.744-2.206-24.871-2.206-24.871l-5.375,11.745.287,3.689c-.079,0-.154-.023-.234-.023a6.171,6.171,0,1,0,1.554,12.119c1.453,6,4.914,13.276,9.425,15.382a12.472,12.472,0,0,0,5.2,1.3A31.648,31.648,0,0,1,1141.809,465.3Z" fill="#fff6e7" opacity="0.52" style="mix-blend-mode: overlay;isolation: isolate"/>
        <g id="Grupo_81270" data-name="Grupo 81270">
          <path id="Trazado_114064" data-name="Trazado 114064" d="M1187.564,690.063,1064.747,652.8a30.027,30.027,0,0,0-37.769,21.139l-.162.622a30.023,30.023,0,0,0,23.87,37.171c45.409,7.937,127.716,21.437,171.033,23.087l18.26,12.173a7.134,7.134,0,0,0,8.835-.731l.094-.089a7.132,7.132,0,0,0,.328-10.079l-2.848-3.041a26.474,26.474,0,0,0-15.076-17.667c-12.537-5.3-13.715-18.255-16.659-25.322S1192.864,679.463,1187.564,690.063Z" fill="#a04040"/>
          <path id="Trazado_114065" data-name="Trazado 114065" d="M1026.978,673.939a30.027,30.027,0,0,1,37.769-21.139l41.649,12.637c-6.273,7.826-14.549,23.714-14.8,53.2-15.207-2.472-29.275-4.872-40.912-6.906a30.023,30.023,0,0,1-23.87-37.171Z" fill="#ff9500" opacity="0.95" style="isolation: isolate"/>
          <path id="Trazado_114066" data-name="Trazado 114066" d="M1065.722,699.844a30.707,30.707,0,0,1-3.32,13.915c-4.112-.7-8.047-1.386-11.716-2.027a30.023,30.023,0,0,1-23.87-37.171l.162-.622a30.286,30.286,0,0,1,1.466-4.267,30.855,30.855,0,0,1,37.278,30.172Z" fill="#b77e00" opacity="0.67" style="mix-blend-mode: multiply;isolation: isolate"/>
          <path id="Trazado_114067" data-name="Trazado 114067" d="M1193.453,707.141s-1.767,10.292-18.845,6.618" fill="rgba(0,0,0,0)" stroke="#8d3935" stroke-miterlimit="10" stroke-width="1.139"/>
          <path id="Trazado_114068" data-name="Trazado 114068" d="M1204.308,702.43s-26.167-1.178-81.523-11.052c-44.847-8-58-30.955-61.382-39.384a30.522,30.522,0,0,1,3.344.806l122.817,37.263c5.3-10.6,24.144-7.067,27.089,0s4.122,20.022,16.659,25.322a26.474,26.474,0,0,1,15.076,17.667s-12.891-8.244-21.04-10.011S1204.308,702.43,1204.308,702.43Z" fill="#552624" opacity="0.28" style="mix-blend-mode: multiply;isolation: isolate"/>
        </g>
        <path id="Trazado_114069" data-name="Trazado 114069" d="M1209.974,734.158s22.552,21.578,41.779,12.7a5.6,5.6,0,0,0,2.112-8.4c-16.2-22-36.615-45.959-44.4-54.964a7.623,7.623,0,0,0-7.894-2.334l-22.149,6.434Z" fill="#2b2b32"/>
        <path id="Trazado_114070" data-name="Trazado 114070" d="M1179.422,687.593l-21.214-6.436,16.069,49.45,35.7,3.55Z" fill="#a7a7a7"/>
        <path id="Trazado_114071" data-name="Trazado 114071" d="M1113.363,690.063,1236.18,652.8a30.026,30.026,0,0,1,37.768,21.139l.163.622a30.023,30.023,0,0,1-23.87,37.171c-45.41,7.937-127.716,21.437-171.034,23.087l-18.259,12.173a7.134,7.134,0,0,1-8.835-.731l-.094-.089a7.132,7.132,0,0,1-.328-10.079l2.847-3.041a26.478,26.478,0,0,1,15.076-17.667c12.538-5.3,13.715-18.255,16.66-25.322S1108.063,679.463,1113.363,690.063Z" fill="#ff7f6e"/>
        <path id="Trazado_114072" data-name="Trazado 114072" d="M1273.948,673.939A30.026,30.026,0,0,0,1236.18,652.8l-41.65,12.637c6.274,7.826,14.549,23.714,14.8,53.2,15.206-2.472,29.275-4.872,40.912-6.906a30.023,30.023,0,0,0,23.87-37.171Z" fill="#ff9500" opacity="0.95" style="isolation: isolate"/>
        <path id="Trazado_114073" data-name="Trazado 114073" d="M1235.2,699.844a30.694,30.694,0,0,0,3.32,13.915c4.112-.7,8.047-1.386,11.716-2.027a30.023,30.023,0,0,0,23.87-37.171l-.163-.622a30.283,30.283,0,0,0-1.465-4.267,30.855,30.855,0,0,0-37.278,30.172Z" fill="#b77e00" opacity="0.67" style="mix-blend-mode: multiply;isolation: isolate"/>
        <path id="Trazado_114074" data-name="Trazado 114074" d="M1096.619,702.43s26.166-1.178,81.522-11.052c44.848-8,58-30.955,61.382-39.384a30.564,30.564,0,0,0-3.343.806l-122.817,37.263c-5.3-10.6-24.145-7.067-27.089,0s-4.122,20.022-16.66,25.322a26.478,26.478,0,0,0-15.076,17.667s12.891-8.244,21.041-10.011S1096.619,702.43,1096.619,702.43Z" fill="#552624" opacity="0.28" style="mix-blend-mode: multiply;isolation: isolate"/>
        <path id="Trazado_114075" data-name="Trazado 114075" d="M1069.614,715.385l-18.411-3.413a30.317,30.317,0,0,1-25.1-35.045l.112-.652a30.317,30.317,0,0,1,39.043-23.793l34.763,11.019" fill="rgba(0,0,0,0)" stroke="#fff" stroke-miterlimit="10" stroke-width="1.114" opacity="0.57"/>
        <path id="Trazado_114076" data-name="Trazado 114076" d="M1144.149,465.107a.8.8,0,0,0-.644,1.289,8.272,8.272,0,0,0,13.935,0,.805.805,0,0,0-.644-1.289Z" fill="#fff"/>
        <path id="Trazado_114077" data-name="Trazado 114077" d="M1152.286,454.911V461.3a4.24,4.24,0,0,0-3.514,0" fill="rgba(0,0,0,0)" stroke="#2b2b32" stroke-linecap="round" stroke-miterlimit="10" stroke-width="0.821"/>
        <rect id="Rectángulo_34164" data-name="Rectángulo 34164" width="1.571" height="9.996" transform="translate(1156.034 431.861)" fill="#ff7f6e"/>
        <g id="Grupo_81271" data-name="Grupo 81271">
          <path id="Trazado_114078" data-name="Trazado 114078" d="M1248.662,618.671l.065.18a21.681,21.681,0,0,1-10.326,26.568l-65.585,34.38-.324-.838a32.252,32.252,0,0,1,14.2-39.715l29.534-16.71Z" fill="#ff7f6e"/>
          <path id="Trazado_114079" data-name="Trazado 114079" d="M1234.814,639.729a14.3,14.3,0,0,0,1.661,6.7l1.926-1.01a21.671,21.671,0,0,0,11.582-20.024c-.264-.015-.526-.04-.8-.04A14.373,14.373,0,0,0,1234.814,639.729Z" fill="#552624" opacity="0.28" style="mix-blend-mode: multiply;isolation: isolate"/>
          <line id="Línea_282" data-name="Línea 282" y1="10.542" x2="18.59" transform="translate(1216.223 611.994)" fill="none" stroke="#552624" stroke-linecap="round" stroke-miterlimit="10" stroke-width="1.336"/>
        </g>
        <g id="Grupo_81272" data-name="Grupo 81272">
          <path id="Trazado_114080" data-name="Trazado 114080" d="M1052.457,618.671l-.065.18a21.681,21.681,0,0,0,10.326,26.568L1128.3,679.8l.324-.838a32.252,32.252,0,0,0-14.2-39.715l-29.534-16.71Z" fill="#ff7f6e"/>
          <path id="Trazado_114081" data-name="Trazado 114081" d="M1066.305,639.729a14.3,14.3,0,0,1-1.661,6.7l-1.926-1.01a21.673,21.673,0,0,1-11.583-20.024c.265-.015.527-.04.8-.04A14.374,14.374,0,0,1,1066.305,639.729Z" fill="#552624" opacity="0.28" style="mix-blend-mode: multiply;isolation: isolate"/>
          <line id="Línea_283" data-name="Línea 283" x1="18.59" y1="10.542" transform="translate(1066.305 611.994)" fill="none" stroke="#552624" stroke-linecap="round" stroke-miterlimit="10" stroke-width="1.336"/>
        </g>
        <path id="Trazado_114082" data-name="Trazado 114082" d="M1121.025,675.984s3.31-18.162-7.47-23.99" fill="rgba(0,0,0,0)" stroke="#552624" stroke-linecap="round" stroke-miterlimit="10" stroke-width="1.336"/>
        <path id="Trazado_114083" data-name="Trazado 114083" d="M1179.9,675.984s-3.311-18.162,7.47-23.99" fill="rgba(0,0,0,0)" stroke="#552624" stroke-linecap="round" stroke-miterlimit="10" stroke-width="1.336"/>
        <path id="Trazado_114084" data-name="Trazado 114084" d="M1090.953,734.158s-22.552,21.578-41.779,12.7a5.6,5.6,0,0,1-2.112-8.4c16.2-22,36.615-45.959,44.4-54.964a7.622,7.622,0,0,1,7.894-2.334l22.149,6.434Z" fill="#2b2b32"/>
        <path id="Trazado_114085" data-name="Trazado 114085" d="M1121.5,687.593l21.214-6.436-16.069,49.45-35.7,3.55Z" fill="#ededed"/>
        <path id="Trazado_114086" data-name="Trazado 114086" d="M1112.682,701.04c6.292-.672,14.466-1.655,24.576-3.082l5.46-16.8-21.214,6.436Z" fill="#552624" opacity="0.28" style="mix-blend-mode: multiply;isolation: isolate"/>
        <path id="Trazado_114087" data-name="Trazado 114087" d="M1097.712,719.139,1085.405,737.9a3.625,3.625,0,0,1-3.519,1.6l-.082-.011a3.626,3.626,0,0,1-2.514-5.626l12.587-18.582a3.463,3.463,0,0,1,3.658-1.429l.072.017A3.463,3.463,0,0,1,1097.712,719.139Z" fill="#fff6e7"/>
        <g id="Grupo_81274" data-name="Grupo 81274">
          <g id="Grupo_81273" data-name="Grupo 81273">
            <path id="Trazado_114088" data-name="Trazado 114088" d="M1148.772,610.734h-75.315l18.569,66.142h113.491l18.569-66.142Z" fill="#b1b1b1"/>
            <rect id="Rectángulo_34165" data-name="Rectángulo 34165" width="113.491" height="9.634" transform="translate(1092.027 676.876)" fill="#8c8c8d"/>
            <ellipse id="Elipse_4860" data-name="Elipse 4860" cx="18.415" cy="9.431" rx="18.415" ry="9.431" transform="translate(1130.487 639.587)" fill="#5a5a63"/>
            <rect id="Rectángulo_34166" data-name="Rectángulo 34166" width="150.629" height="4.388" transform="translate(1073.458 606.347)" fill="#5a5a63"/>
            <rect id="Rectángulo_34167" data-name="Rectángulo 34167" width="11.366" height="3.873" transform="translate(1098.313 679.643)" fill="#5a5a63"/>
            <rect id="Rectángulo_34168" data-name="Rectángulo 34168" width="11.366" height="3.873" transform="translate(1114.717 679.643)" fill="#5a5a63"/>
            <line id="Línea_284" data-name="Línea 284" x1="69.07" transform="translate(1136.447 681.693)" fill="none" stroke="#050a00" stroke-miterlimit="10" stroke-width="1"/>
            <path id="Trazado_114089" data-name="Trazado 114089" d="M1073.458,610.735l18.569,66.141h40.421c24-27.827,38.584-66.141,38.584-66.141l-.049-4.388h-97.525Z" fill="#fff" opacity="0.54" style="mix-blend-mode: overlay;isolation: isolate"/>
          </g>
          <line id="Línea_285" data-name="Línea 285" x2="150.629" transform="translate(1073.458 610.734)" fill="none" stroke="#050a00" stroke-miterlimit="10" stroke-width="1" opacity="0.57"/>
        </g>
      </g>
      <g id="Grupo_81281" data-name="Grupo 81281">
        <ellipse id="Elipse_4861" data-name="Elipse 4861" cx="27.312" cy="1.383" rx="27.312" ry="1.383" transform="translate(967.898 732.775)" fill="#505059" opacity="0.87" style="mix-blend-mode: multiply;isolation: isolate"/>
        <g id="Grupo_81280" data-name="Grupo 81280">
          <g id="Grupo_81279" data-name="Grupo 81279">
            <path id="Trazado_114090" data-name="Trazado 114090" d="M999.2,720.557l1.79-1.951-.895.975.9-.967c-.22-.21-21.775-22.063,4.261-120.533l-2.56-.677C976.121,697.936,998.248,719.68,999.2,720.557Z" fill="#5a5a63"/>
            <g id="Grupo_81276" data-name="Grupo 81276">
              <path id="Trazado_114091" data-name="Trazado 114091" d="M991.173,599.775c9.862,8.961,8.133,19.557,8.133,19.557s-9.875-4.211-12.166-17.338A2.427,2.427,0,0,1,991.173,599.775Z" fill="#5a5a63"/>
              <path id="Trazado_114092" data-name="Trazado 114092" d="M1015.846,606.1c-12.956,3.111-16.54,13.231-16.54,13.231s10.684,1.06,19.008-9.345A2.427,2.427,0,0,0,1015.846,606.1Z" fill="#5a5a63"/>
            </g>
            <g id="Grupo_81277" data-name="Grupo 81277">
              <path id="Trazado_114093" data-name="Trazado 114093" d="M984.417,625.528c10.712,7.925,10.057,18.641,10.057,18.641s-10.249-3.2-13.847-16.028A2.427,2.427,0,0,1,984.417,625.528Z" fill="#5a5a63"/>
              <path id="Trazado_114094" data-name="Trazado 114094" d="M1009.6,629.343c-12.579,4.4-15.127,14.826-15.127,14.826s10.736-.02,17.973-11.208A2.427,2.427,0,0,0,1009.6,629.343Z" fill="#5a5a63"/>
            </g>
            <g id="Grupo_81278" data-name="Grupo 81278">
              <path id="Trazado_114095" data-name="Trazado 114095" d="M980.135,648.112c11.269,7.11,11.409,17.845,11.409,17.845s-10.457-2.43-14.995-14.959A2.427,2.427,0,0,1,980.135,648.112Z" fill="#5a5a63"/>
              <path id="Trazado_114096" data-name="Trazado 114096" d="M1005.532,650.052c-12.219,5.316-13.988,15.9-13.988,15.9s10.705-.814,17.094-12.507A2.427,2.427,0,0,0,1005.532,650.052Z" fill="#5a5a63"/>
            </g>
            <path id="Trazado_114097" data-name="Trazado 114097" d="M1012.3,580.044c.223,13.323-8.682,19.32-8.682,19.32s-3.694-10.081,4.3-20.74A2.428,2.428,0,0,1,1012.3,580.044Z" fill="#5a5a63"/>
          </g>
          <rect id="Rectángulo_34169" data-name="Rectángulo 34169" width="28.633" height="56.643" transform="translate(979.857 676.898)" fill="#ff9500" opacity="0.95" style="isolation: isolate"/>
          <rect id="Rectángulo_34170" data-name="Rectángulo 34170" width="11.439" height="56.643" transform="translate(997.05 676.898)" fill="#b77e00" opacity="0.67" style="mix-blend-mode: multiply;isolation: isolate"/>
        </g>
      </g>
    </g>
  </g>
</svg>
