<svg xmlns="http://www.w3.org/2000/svg" width="50" height="50" viewBox="0 0 50 50">
  <g id="n12" transform="translate(0.259 0.343)" opacity="0.95">
    <circle id="Elipse_4720" data-name="Elipse 4720" cx="25" cy="25" r="25" transform="translate(-0.259 -0.343)" fill="#255065"/>
    <path id="Trazado_114319" data-name="Trazado 114319" d="M-5.64,0h-5.446V-17.338l-5.35,1.563V-19.9l10.3-3.561h.5ZM17.805,0H1.434V-3.545l7.541-7.928q2.788-3.174,2.788-5.043a3.508,3.508,0,0,0-.661-2.3,2.359,2.359,0,0,0-1.917-.79A2.388,2.388,0,0,0,7.17-18.554,4.338,4.338,0,0,0,6.4-15.92H.951a7.7,7.7,0,0,1,1.08-3.988,7.571,7.571,0,0,1,3-2.86A8.9,8.9,0,0,1,9.313-23.8a8.758,8.758,0,0,1,5.857,1.756A6.27,6.27,0,0,1,17.225-17a7.324,7.324,0,0,1-.516,2.7,11.836,11.836,0,0,1-1.6,2.755,40.386,40.386,0,0,1-3.5,3.859l-3.029,3.5h9.233Z" transform="translate(24.741 35.656)" fill="#fff"/>
  </g>
</svg>
