<svg xmlns="http://www.w3.org/2000/svg" width="50" height="50" viewBox="0 0 50 50">
  <g id="n13" transform="translate(0.259 0.344)" opacity="0.95">
    <circle id="Elipse_4720" data-name="Elipse 4720" cx="25" cy="25" r="25" transform="translate(-0.259 -0.343)" fill="#255065"/>
    <path id="Trazado_114320" data-name="Trazado 114320" d="M-5.64,0h-5.446V-17.338l-5.35,1.563V-19.9l10.3-3.561h.5ZM6.4-14H8.959Q12-14,12-16.983a2.578,2.578,0,0,0-.725-1.893,2.75,2.75,0,0,0-2.046-.733,2.944,2.944,0,0,0-1.877.628,1.917,1.917,0,0,0-.8,1.563H1.128a5.559,5.559,0,0,1,1.031-3.3,6.81,6.81,0,0,1,2.86-2.264A9.779,9.779,0,0,1,9.04-23.8a9.608,9.608,0,0,1,6.155,1.789,5.946,5.946,0,0,1,2.24,4.915,4.956,4.956,0,0,1-.927,2.86,6.6,6.6,0,0,1-2.7,2.183A6.308,6.308,0,0,1,16.742-10,5.41,5.41,0,0,1,17.805-6.59a6.054,6.054,0,0,1-2.417,5.027A10.033,10.033,0,0,1,9.04.322,10.4,10.4,0,0,1,4.761-.556,6.7,6.7,0,0,1,1.772-2.989,6.326,6.326,0,0,1,.757-6.526H6.22a2.445,2.445,0,0,0,.87,1.869,3.072,3.072,0,0,0,2.143.79,3.218,3.218,0,0,0,2.288-.8A2.666,2.666,0,0,0,12.375-6.7a3.117,3.117,0,0,0-.886-2.514A3.7,3.7,0,0,0,9.04-9.958H6.4Z" transform="translate(24.741 35.656)" fill="#fff"/>
  </g>
</svg>
