<svg xmlns="http://www.w3.org/2000/svg" width="50" height="50" viewBox="0 0 50 50">
  <g id="n5" transform="translate(0.259 0.343)" opacity="0.95">
    <circle id="Elipse_4720" data-name="Elipse 4720" cx="25" cy="25" r="25" transform="translate(-0.259 -0.343)" fill="#255065"/>
    <path id="Trazado_114312" data-name="Trazado 114312" d="M-7.8-11.46l1.434-12H7.348v4.222h-9.3l-.532,4.661a6.4,6.4,0,0,1,1.523-.6,6.947,6.947,0,0,1,1.845-.259A6.883,6.883,0,0,1,6.26-13.366,8.34,8.34,0,0,1,8.137-7.557,8.326,8.326,0,0,1,7.13-3.472,6.922,6.922,0,0,1,4.3-.661,8.928,8.928,0,0,1,0,.322a9.607,9.607,0,0,1-4.141-.91,7.429,7.429,0,0,1-3.029-2.5A6.064,6.064,0,0,1-8.25-6.665H-2.8a3.08,3.08,0,0,0,.822,2.042,2.608,2.608,0,0,0,1.95.756q2.739,0,2.739-4.052,0-3.747-3.352-3.747A3.344,3.344,0,0,0-3.48-10.444Z" transform="translate(25.741 35.656)" fill="#fff"/>
  </g>
</svg>
