<svg xmlns="http://www.w3.org/2000/svg" width="50" height="50" viewBox="0 0 50 50">
  <g id="n6" transform="translate(0.259 0.343)" opacity="0.95">
    <circle id="Elipse_4720" data-name="Elipse 4720" cx="25" cy="25" r="25" transform="translate(-0.259 -0.343)" fill="#255065"/>
    <path id="Trazado_114313" data-name="Trazado 114313" d="M5-23.8v4.27H4.753a8.152,8.152,0,0,0-5,1.458,6.157,6.157,0,0,0-2.409,4.052,6.35,6.35,0,0,1,4.641-1.8A5.923,5.923,0,0,1,6.832-13.6a8.969,8.969,0,0,1,1.8,5.833A8.213,8.213,0,0,1,7.581-3.658,7.531,7.531,0,0,1,4.633-.733,8.473,8.473,0,0,1,.435.322,8.757,8.757,0,0,1-4.028-.814,7.81,7.81,0,0,1-7.09-4.061,10.691,10.691,0,0,1-8.218-8.927V-11.1A13.544,13.544,0,0,1-6.663-17.62a11.273,11.273,0,0,1,4.439-4.536,12.692,12.692,0,0,1,6.4-1.644ZM.1-11.666a3.107,3.107,0,0,0-1.8.5,3.171,3.171,0,0,0-1.08,1.225v1.627q0,4.447,3.078,4.447A2.5,2.5,0,0,0,2.361-4.979a4.531,4.531,0,0,0,.83-2.788,4.448,4.448,0,0,0-.846-2.812A2.706,2.706,0,0,0,.1-11.666Z" transform="translate(25.741 35.656)" fill="#fff"/>
  </g>
</svg>
