<svg xmlns="http://www.w3.org/2000/svg" width="50" height="50" viewBox="0 0 50 50">
  <g id="n8" transform="translate(0.259 0.343)" opacity="0.95">
    <circle id="Elipse_4720" data-name="Elipse 4720" cx="25" cy="25" r="25" transform="translate(-0.259 -0.343)" fill="#255065"/>
    <path id="Trazado_114315" data-name="Trazado 114315" d="M7.7-17.193a5.416,5.416,0,0,1-.846,3.013,6.161,6.161,0,0,1-2.328,2.095A6.78,6.78,0,0,1,7.187-9.837a5.8,5.8,0,0,1,.983,3.376A6.14,6.14,0,0,1,6-1.5,9,9,0,0,1,.032.322,9.164,9.164,0,0,1-5.994-1.507,6.1,6.1,0,0,1-8.2-6.461,5.873,5.873,0,0,1-7.235-9.8,6.574,6.574,0,0,1-4.5-12.085,6.2,6.2,0,0,1-6.848-14.18,5.378,5.378,0,0,1-7.7-17.193a6.02,6.02,0,0,1,2.079-4.834A8.356,8.356,0,0,1-.016-23.8a8.407,8.407,0,0,1,5.64,1.772A6.02,6.02,0,0,1,7.7-17.193ZM2.723-6.9a3.1,3.1,0,0,0-.749-2.232A2.609,2.609,0,0,0,0-9.91a2.635,2.635,0,0,0-1.982.781A3.077,3.077,0,0,0-2.739-6.9a3.1,3.1,0,0,0,.765,2.216,2.627,2.627,0,0,0,2.006.814,2.524,2.524,0,0,0,1.95-.806A3.16,3.16,0,0,0,2.723-6.9ZM-.016-19.61a2.007,2.007,0,0,0-1.668.717,3.112,3.112,0,0,0-.572,1.99,3.3,3.3,0,0,0,.58,2.03A2,2,0,0,0,.032-14.1,1.919,1.919,0,0,0,1.7-14.873a3.4,3.4,0,0,0,.556-2.03,3.119,3.119,0,0,0-.572-1.982A2.034,2.034,0,0,0-.016-19.61Z" transform="translate(25.741 35.656)" fill="#fff"/>
  </g>
</svg>
